<?xml version="1.0" encoding="UTF-8" standalone="no"?>
<!-- Created with Inkscape (http://www.inkscape.org/) -->

<svg
   xmlns:dc="http://purl.org/dc/elements/1.1/"
   xmlns:cc="http://creativecommons.org/ns#"
   xmlns:rdf="http://www.w3.org/1999/02/22-rdf-syntax-ns#"
   xmlns:svg="http://www.w3.org/2000/svg"
   xmlns="http://www.w3.org/2000/svg"
   xmlns:sodipodi="http://sodipodi.sourceforge.net/DTD/sodipodi-0.dtd"
   xmlns:inkscape="http://www.inkscape.org/namespaces/inkscape"
   width="11in"
   height="8.5in"
   viewBox="0 0 279.4 215.9"
   version="1.1"
   id="svg1913"
   inkscape:version="0.92.2 (5c3e80d, 2017-08-06)"
   sodipodi:docname="frame_pixel_counts.svg">
  <defs
     id="defs1907" />
  <sodipodi:namedview
     id="base"
     pagecolor="#ffffff"
     bordercolor="#666666"
     borderopacity="1.0"
     inkscape:pageopacity="0.0"
     inkscape:pageshadow="2"
     inkscape:zoom="0.35"
     inkscape:cx="-452.85714"
     inkscape:cy="560"
     inkscape:document-units="mm"
     inkscape:current-layer="layer1"
     showgrid="false"
     units="in"
     inkscape:window-width="2736"
     inkscape:window-height="1668"
     inkscape:window-x="-16"
     inkscape:window-y="-16"
     inkscape:window-maximized="1" />
  <metadata
     id="metadata1910">
    <rdf:RDF>
      <cc:Work
         rdf:about="">
        <dc:format>image/svg+xml</dc:format>
        <dc:type
           rdf:resource="http://purl.org/dc/dcmitype/StillImage" />
        <dc:title></dc:title>
      </cc:Work>
    </rdf:RDF>
  </metadata>
  <g
     inkscape:label="Layer 1"
     inkscape:groupmode="layer"
     id="layer1"
     transform="translate(0,-81.1)">
    <g
       id="g2765"
       transform="translate(290.89048,-228.90238)">
      <rect
         id="rect929"
         height="158.75"
         width="211.66667"
         y="336.9678"
         x="-256.40692"
         style="fill:none;stroke-width:0.26458332" />
      <g
         transform="matrix(0.26458333,0,0,0.26458333,-256.40691,336.96781)"
         id="g969"
         style="color:#000000;fill:none;stroke:currentColor;stroke-width:1;stroke-linecap:butt;stroke-linejoin:miter">
        <path
           id="path961"
           d="m 71.9,542.4 h 9 m 694.1,0 h -9"
           inkscape:connector-curvature="0"
           style="stroke:#000000" />
        <g
           id="g967"
           font-size="12.00"
           transform="translate(63.6,546.3)"
           style="font-size:12px;font-family:Arial;text-anchor:end;fill:#000000;stroke:none">
          <text
             id="text965">
            <tspan
               id="tspan963"
               style="font-family:Arial">0</tspan>
          </text>
        </g>
      </g>
      <g
         transform="matrix(0.26458333,0,0,0.26458333,-256.40691,336.96781)"
         id="g979"
         style="color:#000000;fill:none;stroke:currentColor;stroke-width:1;stroke-linecap:butt;stroke-linejoin:miter">
        <path
           id="path971"
           d="m 71.9,437.5 h 9 m 694.1,0 h -9"
           inkscape:connector-curvature="0"
           style="stroke:#000000" />
        <g
           id="g977"
           font-size="12.00"
           transform="translate(63.6,441.4)"
           style="font-size:12px;font-family:Arial;text-anchor:end;fill:#000000;stroke:none">
          <text
             id="text975">
            <tspan
               id="tspan973"
               style="font-family:Arial">0.2</tspan>
          </text>
        </g>
      </g>
      <g
         transform="matrix(0.26458333,0,0,0.26458333,-256.40691,336.96781)"
         id="g989"
         style="color:#000000;fill:none;stroke:currentColor;stroke-width:1;stroke-linecap:butt;stroke-linejoin:miter">
        <path
           id="path981"
           d="m 71.9,332.7 h 9 m 694.1,0 h -9"
           inkscape:connector-curvature="0"
           style="stroke:#000000" />
        <g
           id="g987"
           font-size="12.00"
           transform="translate(63.6,336.6)"
           style="font-size:12px;font-family:Arial;text-anchor:end;fill:#000000;stroke:none">
          <text
             id="text985">
            <tspan
               id="tspan983"
               style="font-family:Arial">0.4</tspan>
          </text>
        </g>
      </g>
      <g
         transform="matrix(0.26458333,0,0,0.26458333,-256.40691,336.96781)"
         id="g999"
         style="color:#000000;fill:none;stroke:currentColor;stroke-width:1;stroke-linecap:butt;stroke-linejoin:miter">
        <path
           id="path991"
           d="m 71.9,227.8 h 9 m 694.1,0 h -9"
           inkscape:connector-curvature="0"
           style="stroke:#000000" />
        <g
           id="g997"
           font-size="12.00"
           transform="translate(63.6,231.7)"
           style="font-size:12px;font-family:Arial;text-anchor:end;fill:#000000;stroke:none">
          <text
             id="text995">
            <tspan
               id="tspan993"
               style="font-family:Arial">0.6</tspan>
          </text>
        </g>
      </g>
      <g
         transform="matrix(0.26458333,0,0,0.26458333,-256.40691,336.96781)"
         id="g1009"
         style="color:#000000;fill:none;stroke:currentColor;stroke-width:1;stroke-linecap:butt;stroke-linejoin:miter">
        <path
           id="path1001"
           d="m 71.9,123 h 9 m 694.1,0 h -9"
           inkscape:connector-curvature="0"
           style="stroke:#000000" />
        <g
           id="g1007"
           font-size="12.00"
           transform="translate(63.6,126.9)"
           style="font-size:12px;font-family:Arial;text-anchor:end;fill:#000000;stroke:none">
          <text
             id="text1005">
            <tspan
               id="tspan1003"
               style="font-family:Arial">0.8</tspan>
          </text>
        </g>
      </g>
      <g
         transform="matrix(0.26458333,0,0,0.26458333,-256.40691,336.96781)"
         id="g1019"
         style="color:#000000;fill:none;stroke:currentColor;stroke-width:1;stroke-linecap:butt;stroke-linejoin:miter">
        <path
           id="path1011"
           d="m 71.9,18.1 h 9 m 694.1,0 h -9"
           inkscape:connector-curvature="0"
           style="stroke:#000000" />
        <g
           id="g1017"
           font-size="12.00"
           transform="translate(63.6,22)"
           style="font-size:12px;font-family:Arial;text-anchor:end;fill:#000000;stroke:none">
          <text
             id="text1015">
            <tspan
               id="tspan1013"
               style="font-family:Arial">1</tspan>
          </text>
        </g>
      </g>
      <g
         transform="matrix(0.26458333,0,0,0.26458333,-256.40691,336.96781)"
         id="g1029"
         style="color:#000000;fill:none;stroke:currentColor;stroke-width:1;stroke-linecap:butt;stroke-linejoin:miter">
        <path
           id="path1021"
           d="m 71.9,542.4 v -9 m 0,-515.3 v 9"
           inkscape:connector-curvature="0"
           style="stroke:#000000" />
        <g
           id="g1027"
           font-size="12.00"
           transform="translate(71.9,564.3)"
           style="font-size:12px;font-family:Arial;text-anchor:middle;fill:#000000;stroke:none">
          <text
             id="text1025">
            <tspan
               id="tspan1023"
               style="font-family:Arial">0</tspan>
          </text>
        </g>
      </g>
      <g
         transform="matrix(0.26458333,0,0,0.26458333,-256.40691,336.96781)"
         id="g1039"
         style="color:#000000;fill:none;stroke:currentColor;stroke-width:1;stroke-linecap:butt;stroke-linejoin:miter">
        <path
           id="path1031"
           d="m 150,542.4 v -9 m 0,-515.3 v 9"
           inkscape:connector-curvature="0"
           style="stroke:#000000" />
        <g
           id="g1037"
           font-size="12.00"
           transform="translate(150,564.3)"
           style="font-size:12px;font-family:Arial;text-anchor:middle;fill:#000000;stroke:none">
          <text
             id="text1035">
            <tspan
               id="tspan1033"
               style="font-family:Arial">500</tspan>
          </text>
        </g>
      </g>
      <g
         transform="matrix(0.26458333,0,0,0.26458333,-256.40691,336.96781)"
         id="g1049"
         style="color:#000000;fill:none;stroke:currentColor;stroke-width:1;stroke-linecap:butt;stroke-linejoin:miter">
        <path
           id="path1041"
           d="m 228.1,542.4 v -9 m 0,-515.3 v 9"
           inkscape:connector-curvature="0"
           style="stroke:#000000" />
        <g
           id="g1047"
           font-size="12.00"
           transform="translate(228.1,564.3)"
           style="font-size:12px;font-family:Arial;text-anchor:middle;fill:#000000;stroke:none">
          <text
             id="text1045">
            <tspan
               id="tspan1043"
               style="font-family:Arial">1000</tspan>
          </text>
        </g>
      </g>
      <g
         transform="matrix(0.26458333,0,0,0.26458333,-256.40691,336.96781)"
         id="g1059"
         style="color:#000000;fill:none;stroke:currentColor;stroke-width:1;stroke-linecap:butt;stroke-linejoin:miter">
        <path
           id="path1051"
           d="m 306.3,542.4 v -9 m 0,-515.3 v 9"
           inkscape:connector-curvature="0"
           style="stroke:#000000" />
        <g
           id="g1057"
           font-size="12.00"
           transform="translate(306.3,564.3)"
           style="font-size:12px;font-family:Arial;text-anchor:middle;fill:#000000;stroke:none">
          <text
             id="text1055">
            <tspan
               id="tspan1053"
               style="font-family:Arial">1500</tspan>
          </text>
        </g>
      </g>
      <g
         transform="matrix(0.26458333,0,0,0.26458333,-256.40691,336.96781)"
         id="g1069"
         style="color:#000000;fill:none;stroke:currentColor;stroke-width:1;stroke-linecap:butt;stroke-linejoin:miter">
        <path
           id="path1061"
           d="m 384.4,542.4 v -9 m 0,-515.3 v 9"
           inkscape:connector-curvature="0"
           style="stroke:#000000" />
        <g
           id="g1067"
           font-size="12.00"
           transform="translate(384.4,564.3)"
           style="font-size:12px;font-family:Arial;text-anchor:middle;fill:#000000;stroke:none">
          <text
             id="text1065">
            <tspan
               id="tspan1063"
               style="font-family:Arial">2000</tspan>
          </text>
        </g>
      </g>
      <g
         transform="matrix(0.26458333,0,0,0.26458333,-256.40691,336.96781)"
         id="g1079"
         style="color:#000000;fill:none;stroke:currentColor;stroke-width:1;stroke-linecap:butt;stroke-linejoin:miter">
        <path
           id="path1071"
           d="m 462.5,542.4 v -9 m 0,-515.3 v 9"
           inkscape:connector-curvature="0"
           style="stroke:#000000" />
        <g
           id="g1077"
           font-size="12.00"
           transform="translate(462.5,564.3)"
           style="font-size:12px;font-family:Arial;text-anchor:middle;fill:#000000;stroke:none">
          <text
             id="text1075">
            <tspan
               id="tspan1073"
               style="font-family:Arial">2500</tspan>
          </text>
        </g>
      </g>
      <g
         transform="matrix(0.26458333,0,0,0.26458333,-256.40691,336.96781)"
         id="g1089"
         style="color:#000000;fill:none;stroke:currentColor;stroke-width:1;stroke-linecap:butt;stroke-linejoin:miter">
        <path
           id="path1081"
           d="m 540.6,542.4 v -9 m 0,-515.3 v 9"
           inkscape:connector-curvature="0"
           style="stroke:#000000" />
        <g
           id="g1087"
           font-size="12.00"
           transform="translate(540.6,564.3)"
           style="font-size:12px;font-family:Arial;text-anchor:middle;fill:#000000;stroke:none">
          <text
             id="text1085">
            <tspan
               id="tspan1083"
               style="font-family:Arial">3000</tspan>
          </text>
        </g>
      </g>
      <g
         transform="matrix(0.26458333,0,0,0.26458333,-256.40691,336.96781)"
         id="g1099"
         style="color:#000000;fill:none;stroke:currentColor;stroke-width:1;stroke-linecap:butt;stroke-linejoin:miter">
        <path
           id="path1091"
           d="m 618.8,542.4 v -9 m 0,-515.3 v 9"
           inkscape:connector-curvature="0"
           style="stroke:#000000" />
        <g
           id="g1097"
           font-size="12.00"
           transform="translate(618.8,564.3)"
           style="font-size:12px;font-family:Arial;text-anchor:middle;fill:#000000;stroke:none">
          <text
             id="text1095">
            <tspan
               id="tspan1093"
               style="font-family:Arial">3500</tspan>
          </text>
        </g>
      </g>
      <g
         transform="matrix(0.26458333,0,0,0.26458333,-256.40691,336.96781)"
         id="g1109"
         style="color:#000000;fill:none;stroke:currentColor;stroke-width:1;stroke-linecap:butt;stroke-linejoin:miter">
        <path
           id="path1101"
           d="m 696.9,542.4 v -9 m 0,-515.3 v 9"
           inkscape:connector-curvature="0"
           style="stroke:#000000" />
        <g
           id="g1107"
           font-size="12.00"
           transform="translate(696.9,564.3)"
           style="font-size:12px;font-family:Arial;text-anchor:middle;fill:#000000;stroke:none">
          <text
             id="text1105">
            <tspan
               id="tspan1103"
               style="font-family:Arial">4000</tspan>
          </text>
        </g>
      </g>
      <g
         transform="matrix(0.26458333,0,0,0.26458333,-256.40691,336.96781)"
         id="g1119"
         style="color:#000000;fill:none;stroke:currentColor;stroke-width:1;stroke-linecap:butt;stroke-linejoin:miter">
        <path
           id="path1111"
           d="m 775,542.4 v -9 m 0,-515.3 v 9"
           inkscape:connector-curvature="0"
           style="stroke:#000000" />
        <g
           id="g1117"
           font-size="12.00"
           transform="translate(775,564.3)"
           style="font-size:12px;font-family:Arial;text-anchor:middle;fill:#000000;stroke:none">
          <text
             id="text1115">
            <tspan
               id="tspan1113"
               style="font-family:Arial">4500</tspan>
          </text>
        </g>
      </g>
      <g
         transform="matrix(0.26458333,0,0,0.26458333,-256.40691,336.96781)"
         id="g1125"
         style="color:#000000;fill:none;stroke:currentColor;stroke-width:1;stroke-linecap:butt;stroke-linejoin:miter">
        <path
           id="path1123"
           d="M 71.9,18.1 V 542.4 H 775 V 18.1 Z"
           inkscape:connector-curvature="0"
           style="stroke:#000000" />
      </g>
      <g
         transform="matrix(0.57676288,0,0,0.57676288,-262.00315,250.04298)"
         id="g1133"
         style="color:#000000;fill:none;stroke:currentColor;stroke-width:1;stroke-linecap:butt;stroke-linejoin:miter">
        <g
           id="g1131"
           font-size="12.00"
           transform="rotate(-90,148.3,132)"
           style="font-size:12px;font-family:Arial;text-anchor:middle;fill:#000000;stroke:none">
          <text
             id="text1129">
            <tspan
               id="tspan1127"
               style="font-family:Arial">proportion of max pixels detected</tspan>
          </text>
        </g>
      </g>
      <g
         transform="matrix(0.85567303,0,0,0.85567303,-505.74171,-7.1428399)"
         id="g1141"
         style="color:#000000;fill:none;stroke:currentColor;stroke-width:1;stroke-linecap:butt;stroke-linejoin:miter">
        <g
           id="g1139"
           font-size="12.00"
           transform="translate(423.4,591.3)"
           style="font-size:12px;font-family:Arial;text-anchor:middle;fill:#000000;stroke:none">
          <text
             id="text1137">
            <tspan
               id="tspan1135"
               style="font-family:Arial">video frame</tspan>
          </text>
        </g>
      </g>
      <g
         style="stroke:#f3f300;stroke-width:4;stroke-miterlimit:4;stroke-dasharray:none;stroke-opacity:1"
         transform="matrix(0.26458333,0,0,0.26458333,-256.40691,336.96781)"
         id="gnuplot_plot_1">
        <title
           id="title1145">'/home/anthony/Google Drive/teaching/SP/SP_2019/in-class/motion_cinema/code/frame_pixel_counts.csv' using 1</title>
        <g
           id="g1149"
           style="color:#000000;fill:none;stroke:#f3f300;stroke-width:4;stroke-linecap:butt;stroke-linejoin:miter;stroke-miterlimit:4;stroke-dasharray:none;stroke-opacity:1">
          <path
             id="path1147"
             d="m 71.9,512.3 0.2,5.9 0.1,1.2 h 0.2 l 0.1,0.6 0.2,1.5 0.1,2.1 0.2,2.2 0.1,1.8 0.2,1 0.2,0.2 0.1,-0.6 0.2,-1.3 0.1,-1.8 0.2,-2 0.1,-2.1 0.2,-2.1 0.2,-1.8 0.1,-1.6 0.2,-1.4 0.1,-1.2 0.2,-0.9 0.1,-0.8 0.2,-0.5 0.1,-0.4 0.2,-0.2 H 76 l 0.1,0.2 0.2,0.3 0.1,0.4 0.2,0.5 0.1,0.5 0.2,0.4 0.2,0.4 0.1,0.3 0.2,0.2 0.1,0.1 0.2,-0.1 0.1,-0.2 0.2,-0.3 0.1,-0.5 0.2,-0.6 0.2,-0.8 0.1,-0.9 0.2,-1.1 0.1,-1.2 0.2,-1.3 0.1,-1.4 0.2,-1.5 0.2,-1.5 0.1,-1.6 0.2,-1.6 0.1,-1.6 0.2,-1.6 0.1,-1.6 0.2,-1.6 0.1,-1.7 0.2,-1.8 0.2,-1.9 0.1,-2 0.2,-2.2 0.1,-2.3 0.2,-2.5 0.1,-2.7 0.2,-2.9 0.2,-3.1 0.1,-3.3 0.2,-3.4 0.1,-3.7 0.2,-3.8 0.1,-3.9 0.2,-4 0.1,-4.1 0.2,-4.1 0.2,-4.2 0.1,-4.1 0.2,-4 0.1,-3.9 0.2,-3.8 0.1,-3.7 0.2,-3.4 0.2,-3.2 0.1,-3 0.2,-2.8 0.1,-2.5 0.2,-2.2 0.1,-2 0.2,-1.7 0.1,-1.5 0.2,-1.3 0.2,-1.1 0.1,-0.9 0.2,-0.7 0.1,-0.5 0.2,-0.4 0.1,-0.2 0.2,-0.2 h 0.2 l 0.1,0.1 0.2,0.1 0.1,0.2 0.2,0.2 0.1,0.3 0.2,0.4 0.1,0.3 0.2,0.3 0.2,0.4 0.1,0.3 0.2,0.3 0.1,0.2 0.2,0.2 0.1,0.2 h 0.2 0.2 l 0.1,-0.1 0.2,-0.2 0.1,-0.3 0.2,-0.4 0.1,-0.5 0.2,-0.6 0.1,-0.7 0.2,-0.8 0.2,-1 0.1,-1 0.2,-1.1 0.1,-1.2 0.2,-1.2 0.1,-1.3 0.2,-1.4 0.2,-1.3 0.1,-1.4 0.2,-1.4 0.1,-1.4 0.2,-1.4 0.1,-1.3 0.2,-1.3 0.1,-1.3 0.2,-1.2 0.2,-1.2 0.1,-1.1 0.2,-1.1 0.1,-0.9 0.2,-0.9 0.1,-0.9 0.2,-0.7 0.2,-0.7 0.1,-0.6 0.2,-0.6 0.1,-0.5 0.2,-0.4 0.1,-0.3 0.2,-0.3 0.1,-0.2 0.2,-0.2 0.2,-0.1 0.1,-0.1 0.2,-0.1 0.1,0.1 h 0.2 l 0.1,0.1 0.2,0.1 0.2,0.1 0.1,0.2 0.2,0.2 0.1,0.2 0.2,0.3 0.1,0.2 0.2,0.3 0.1,0.2 0.2,0.3 0.2,0.3 0.1,0.3 0.2,0.3 0.1,0.3 0.2,0.3 0.1,0.3 0.2,0.3 0.2,0.3 0.1,0.3 0.2,0.3 0.1,0.2 0.2,0.3 0.1,0.3 0.2,0.2 0.1,0.3 0.2,0.2 0.2,0.2 0.1,0.2 0.2,0.2 0.1,0.2 0.2,0.2 0.1,0.2 0.2,0.2 0.2,0.2 0.1,0.2 0.2,0.2 0.1,0.2 0.2,0.2 0.1,0.2 0.2,0.2 0.1,0.2 0.2,0.3 0.2,0.3 0.1,0.3 0.2,0.3 0.1,0.3 0.2,0.3 0.1,0.4 0.2,0.4 0.2,0.4 0.1,0.5 0.2,0.4 0.1,0.5 0.2,0.5 0.1,0.6 0.2,0.6 0.1,0.6 0.2,0.6 0.2,0.6 0.1,0.7 0.2,0.7 0.1,0.7 0.2,0.7 0.1,0.7 0.2,0.8 0.2,0.7 0.1,0.7 0.2,0.7 0.1,0.7 0.2,0.7 0.1,0.6 0.2,0.7 0.1,0.5 0.2,0.6 0.2,0.4 0.1,0.5 0.2,0.3 0.1,0.3 0.2,0.2 0.1,0.2 h 0.2 0.2 l 0.1,-0.1 0.2,-0.1 0.1,-0.3 0.2,-0.4 0.1,-0.4 0.2,-0.5 0.1,-0.6 0.2,-0.6 0.2,-0.8 0.1,-0.8 0.2,-0.8 0.1,-0.9 0.2,-1 0.1,-0.9 0.2,-1.1 0.2,-1 0.1,-1.1 0.2,-1 0.1,-1.1 0.2,-1.1 0.1,-1 0.2,-1 0.1,-1 0.2,-1 0.2,-1 0.1,-0.9 0.2,-0.8 0.1,-0.8 0.2,-0.8 0.1,-0.7 0.2,-0.7 0.2,-0.6 0.1,-0.5 0.2,-0.5 0.1,-0.4 0.2,-0.4 0.1,-0.4 0.2,-0.2 0.1,-0.2 0.2,-0.2 0.2,-0.1 0.1,-0.1 h 0.2 0.1 0.2 l 0.1,0.1 0.2,0.1 0.2,0.1 0.1,0.2 0.2,0.2 0.1,0.2 0.2,0.3 0.1,0.2 0.2,0.3 0.1,0.3 0.2,0.3 0.2,0.4 0.1,0.3 0.2,0.3 0.1,0.4 0.2,0.3 0.1,0.4 0.2,0.3 0.2,0.4 0.1,0.3 0.2,0.4 0.1,0.3 0.2,0.4 0.1,0.3 0.2,0.3 0.1,0.3 0.2,0.3 0.2,0.3 0.1,0.3 0.2,0.2 0.1,0.3 0.2,0.2 0.1,0.2 0.2,0.2 0.2,0.2 0.1,0.1 0.2,0.2 0.1,0.1 0.2,0.1 h 0.1 l 0.2,0.1 h 0.1 0.2 l 0.2,-0.1 h 0.1 l 0.2,-0.1 0.1,-0.1 0.2,-0.1 0.1,-0.2 0.2,-0.1 0.2,-0.2 0.1,-0.2 0.2,-0.3 0.1,-0.2 0.2,-0.3 0.1,-0.2 0.2,-0.3 0.1,-0.4 0.2,-0.3 0.2,-0.3 0.1,-0.4 0.2,-0.3 0.1,-0.4 0.2,-0.4 0.1,-0.4 0.2,-0.4 0.2,-0.4 0.1,-0.5 0.2,-0.4 0.1,-0.5 0.2,-0.4 0.1,-0.5 0.2,-0.5 0.1,-0.6 0.2,-0.5 0.2,-0.6 0.1,-0.6 0.2,-0.6 0.1,-0.6 0.2,-0.7 0.1,-0.7 0.2,-0.8 0.2,-0.8 0.1,-0.8 0.2,-0.9 0.1,-0.9 0.2,-0.9 0.1,-1.1 0.2,-1 0.1,-1.2 0.2,-1.1 0.2,-1.3 0.1,-1.3 0.2,-1.4 0.1,-1.4 0.2,-1.5 0.1,-1.5 0.2,-1.6 0.2,-1.7 0.1,-1.7 0.2,-1.7 0.1,-1.9 0.2,-1.8 0.1,-1.9 0.2,-2 0.1,-2 0.2,-2 0.2,-2.1 0.1,-2.1 0.2,-2.1 0.1,-2.1 0.2,-2.2 0.1,-2.2 0.2,-2.1 0.2,-2.2 0.1,-2.2 0.2,-2.2 0.1,-2.1 0.2,-2.2 0.1,-2.1 0.2,-2.1 0.1,-2.2 0.2,-2.1 0.2,-2 0.1,-2.1 0.2,-2 0.1,-2.1 0.2,-2 0.1,-1.9 0.2,-2 0.2,-2 0.1,-1.9 0.2,-1.9 0.1,-1.9 0.2,-2 0.1,-1.9 0.2,-1.9 0.1,-1.9 0.2,-1.9 0.2,-2 0.1,-1.9 0.2,-2 0.1,-2 0.2,-2 0.1,-2 0.2,-2.1 0.2,-2.1 0.1,-2.1 0.2,-2.2 0.1,-2.1 0.2,-2.3 0.1,-2.2 0.2,-2.3 0.1,-2.3 0.2,-2.3 0.2,-2.4 0.1,-2.4 0.2,-2.4 0.1,-2.4 0.2,-2.4 0.1,-2.5 0.2,-2.4 0.2,-2.5 0.1,-2.4 0.2,-2.5 0.1,-2.4 0.2,-2.4 0.1,-2.4 0.2,-2.3 0.1,-2.3 0.2,-2.3 0.2,-2.2 0.1,-2.2 0.2,-2.1 0.1,-2.1 0.2,-2 0.1,-1.9 0.2,-1.9 0.2,-1.8 0.1,-1.8 0.2,-1.6 0.1,-1.6 0.2,-1.5 0.1,-1.5 0.2,-1.3 0.1,-1.3 0.2,-1.2 0.2,-1.2 0.1,-1 0.2,-1 0.1,-1 0.2,-0.8 0.1,-0.8 0.2,-0.7 0.2,-0.7 0.1,-0.6 0.2,-0.5 0.1,-0.5 0.2,-0.4 0.1,-0.3 0.2,-0.3 0.1,-0.3 0.2,-0.2 0.2,-0.1 0.1,-0.1 h 0.2 l 0.1,0.1 0.2,0.1 0.1,0.1 0.2,0.3 0.2,0.2 0.1,0.4 0.2,0.4 0.1,0.5 0.2,0.6 0.1,0.7 0.2,0.7 0.1,0.8 0.2,0.9 0.2,1 0.1,1.1 0.2,1.2 0.1,1.3 0.2,1.4 0.1,1.5 0.2,1.6 0.2,1.7 0.1,1.8 0.2,1.9 0.1,2 0.2,2.2 0.1,2.2 0.2,2.3 0.1,2.4 0.2,2.5 0.2,2.6 0.1,2.7 0.2,2.7 0.1,2.9 0.2,2.9 0.1,2.9 0.2,3 0.2,3.1 0.1,3 0.2,3.1 0.1,3.2 0.2,3.1 0.1,3.2 0.2,3.1 0.1,3.2 0.2,3.1 0.2,3.1 0.1,3 0.2,3.1 0.1,2.9 0.2,3 0.1,2.8 0.2,2.8 0.2,2.7 0.1,2.7 0.2,2.6 0.1,2.5 0.2,2.4 0.1,2.3 0.2,2.2 0.1,2.2 0.2,2 0.2,2 0.1,1.9 0.2,1.7 0.1,1.7 0.2,1.6 0.1,1.6 0.2,1.4 0.2,1.4 0.1,1.2 0.2,1.2 0.1,1.2 0.2,1 0.1,1 0.2,1 0.1,0.9 0.2,0.8 0.2,0.8 0.1,0.7 0.2,0.7 0.1,0.7 0.2,0.6 0.1,0.6 0.2,0.5 0.2,0.5 0.1,0.5 0.2,0.5 0.1,0.5 0.2,0.4 0.1,0.5 0.2,0.4 0.1,0.4 0.2,0.4 0.2,0.4 0.1,0.4 0.2,0.4 0.1,0.3 0.2,0.4 0.1,0.4 0.2,0.3 0.2,0.4 0.1,0.3 0.2,0.3 0.1,0.4 0.2,0.3 0.1,0.3 0.2,0.3 0.1,0.3 0.2,0.3 0.2,0.3 0.1,0.3 0.2,0.3 0.1,0.3 0.2,0.2 0.1,0.3 0.2,0.2 0.2,0.3 0.1,0.2 0.2,0.2 0.1,0.2 0.2,0.2 0.1,0.2 0.2,0.2 0.1,0.2 0.2,0.2 0.2,0.2 0.1,0.2 0.2,0.2 0.1,0.3 0.2,0.2 0.1,0.2 0.2,0.2 0.2,0.3 0.1,0.3 0.2,0.2 0.1,0.4 0.2,0.3 0.1,0.3 0.2,0.4 0.1,0.5 0.2,0.4 0.2,0.5 0.1,0.5 0.2,0.6 0.1,0.6 0.2,0.6 0.1,0.7 0.2,0.8 0.2,0.8 0.1,0.8 0.2,0.9 0.1,0.9 0.2,1 0.1,1.1 0.2,1.1 0.1,1.1 0.2,1.2 0.2,1.3 0.1,1.3 0.2,1.3 0.1,1.4 0.2,1.5 0.1,1.4 0.2,1.6 0.2,1.5 0.1,1.6 0.2,1.7 0.1,1.6 0.2,1.7 0.1,1.8 0.2,1.7 0.1,1.8 0.2,1.8 0.2,1.8 0.1,1.8 0.2,1.8 0.1,1.8 0.2,1.8 0.1,1.9 0.2,1.8 0.2,1.8 0.1,1.8 0.2,1.8 0.1,1.8 0.2,1.7 0.1,1.8 0.2,1.7 0.1,1.7 0.2,1.6 0.2,1.6 0.1,1.6 0.2,1.6 0.1,1.5 0.2,1.5 0.1,1.5 0.2,1.4 0.2,1.4 0.1,1.3 0.2,1.3 0.1,1.2 0.2,1.2 0.1,1.2 0.2,1.1 0.1,1 0.2,1.1 0.2,0.9 0.1,0.9 0.2,0.9 0.1,0.8 0.2,0.8 0.1,0.7 0.2,0.7 0.2,0.6 0.1,0.6 0.2,0.5 0.1,0.4 0.2,0.5 0.1,0.3 0.2,0.3 0.1,0.3 0.2,0.2 0.2,0.2 0.1,0.1 0.2,0.1 h 0.1 l 0.2,-0.1 0.1,-0.1 0.2,-0.1 0.2,-0.2 0.1,-0.2 0.2,-0.3 0.1,-0.3 0.2,-0.4 0.1,-0.4 0.2,-0.5 0.1,-0.5 0.2,-0.6 0.2,-0.6 0.1,-0.6 0.2,-0.7 0.1,-0.7 0.2,-0.8 0.1,-0.8 0.2,-0.9 0.2,-0.8 0.1,-1 0.2,-0.9 0.1,-1 0.2,-1 0.1,-1.1 0.2,-1.1 0.1,-1.1 0.2,-1.1 0.2,-1.2 0.1,-1.2 0.2,-1.3 0.1,-1.2 0.2,-1.3 0.1,-1.3 0.2,-1.3 0.2,-1.4 0.1,-1.4 0.2,-1.3 0.1,-1.5 0.2,-1.4 0.1,-1.4 0.2,-1.5 0.1,-1.5 0.2,-1.5 0.2,-1.5 0.1,-1.5 0.2,-1.6 0.1,-1.6 0.2,-1.5 0.1,-1.6 0.2,-1.6 0.2,-1.7 0.1,-1.6 0.2,-1.6 0.1,-1.7 0.2,-1.7 0.1,-1.6 0.2,-1.7 0.1,-1.7 0.2,-1.7 0.2,-1.7 0.1,-1.7 0.2,-1.7 0.1,-1.8 0.2,-1.7 0.1,-1.7 0.2,-1.7 0.2,-1.8 0.1,-1.7 0.2,-1.7 0.1,-1.7 0.2,-1.7 0.1,-1.7 0.2,-1.7 0.1,-1.7 0.2,-1.6 0.2,-1.7 0.1,-1.6 0.2,-1.6 0.1,-1.6 0.2,-1.5 0.1,-1.6 0.2,-1.5 0.2,-1.4 0.1,-1.5 0.2,-1.4 0.1,-1.4 0.2,-1.3 0.1,-1.3 0.2,-1.3 0.1,-1.2 0.2,-1.2 0.2,-1.1 0.1,-1.1 0.2,-1.1 0.1,-1 0.2,-0.9 0.1,-1 0.2,-0.8 0.2,-0.8 0.1,-0.8 0.2,-0.8 0.1,-0.6 0.2,-0.7 0.1,-0.6 0.2,-0.5 0.1,-0.6 0.2,-0.4 0.2,-0.5 0.1,-0.4 0.2,-0.3 0.1,-0.4 0.2,-0.3 0.1,-0.2 0.2,-0.3 0.2,-0.2 0.1,-0.2 0.2,-0.1 0.1,-0.2 0.2,-0.1 0.1,-0.2 0.2,-0.1 0.1,-0.1 0.2,-0.1 0.2,-0.1 0.1,-0.1 0.2,-0.1 0.1,-0.1 0.2,-0.1 0.1,-0.1 0.2,-0.1 0.2,-0.2 0.1,-0.2 0.2,-0.1 0.1,-0.2 0.2,-0.3 0.1,-0.2 0.2,-0.3 0.1,-0.3 0.2,-0.3 0.2,-0.4 0.1,-0.3 0.2,-0.5 0.1,-0.4 0.2,-0.5 0.1,-0.5 0.2,-0.6 0.2,-0.5 0.1,-0.6 0.2,-0.7 0.1,-0.7 0.2,-0.7 0.1,-0.7 0.2,-0.8 0.1,-0.8 0.2,-0.9 0.2,-0.8 0.1,-0.9 0.2,-0.9 0.1,-1 0.2,-0.9 0.1,-1 0.2,-1 0.2,-1 0.1,-1.1 0.2,-1 0.1,-1 0.2,-1.1 0.1,-1.1 0.2,-1 0.1,-1.1 0.2,-1 0.2,-1.1 0.1,-1 0.2,-1 0.1,-1.1 0.2,-1 0.1,-0.9 0.2,-1 0.2,-0.9 0.1,-0.9 0.2,-0.9 0.1,-0.9 0.2,-0.8 0.1,-0.8 0.2,-0.8 0.1,-0.7 0.2,-0.6 0.2,-0.7 0.1,-0.6 0.2,-0.5 0.1,-0.5 0.2,-0.5 0.1,-0.4 0.2,-0.4 0.2,-0.3 0.1,-0.3 0.2,-0.2 0.1,-0.2 0.2,-0.2 0.1,-0.1 h 0.2 0.1 0.2 l 0.2,0.1 0.1,0.1 0.2,0.2 0.1,0.2 0.2,0.3 0.1,0.3 0.2,0.3 0.2,0.3 0.1,0.4 0.2,0.4 0.1,0.5 0.2,0.5 0.1,0.5 0.2,0.5 0.1,0.6 0.2,0.5 0.2,0.6 0.1,0.6 0.2,0.7 0.1,0.6 0.2,0.7 0.1,0.6 0.2,0.7 0.2,0.7 0.1,0.7 0.2,0.7 0.1,0.7 0.2,0.7 0.1,0.7 0.2,0.7 0.1,0.8 0.2,0.7 0.2,0.7 0.1,0.8 0.2,0.7 0.1,0.8 0.2,0.7 0.1,0.8 0.2,0.7 0.2,0.8 0.1,0.7 0.2,0.8 0.1,0.8 0.2,0.8 0.1,0.8 0.2,0.8 0.1,0.8 0.2,0.8 0.2,0.8 0.1,0.9 0.2,0.8 0.1,0.9 0.2,0.9 0.1,0.9 0.2,1 0.2,0.9 0.1,1 0.2,1 0.1,1 0.2,1 0.1,1 0.2,1.1 0.1,1.1 0.2,1.1 0.2,1.2 0.1,1.1 0.2,1.2 0.1,1.2 0.2,1.2 0.1,1.3 0.2,1.3 0.2,1.3 0.1,1.3 0.2,1.3 0.1,1.3 0.2,1.4 0.1,1.4 0.2,1.4 0.1,1.4 0.2,1.4 0.2,1.4 0.1,1.4 0.2,1.5 0.1,1.4 0.2,1.4 0.1,1.5 0.2,1.4 0.2,1.5 0.1,1.4 0.2,1.5 0.1,1.4 0.2,1.4 0.1,1.4 0.2,1.4 0.1,1.4 0.2,1.4 0.2,1.3 0.1,1.4 0.2,1.3 0.1,1.3 0.2,1.2 0.1,1.3 0.2,1.2 0.2,1.2 0.1,1.2 0.2,1.1 0.1,1.1 0.2,1.1 0.1,1.1 0.2,1 0.1,1 0.2,0.9 0.2,1 0.1,0.9 0.2,0.8 0.1,0.9 0.2,0.7 0.1,0.8 0.2,0.7 0.2,0.7 0.1,0.7 0.2,0.6 0.1,0.7 0.2,0.5 0.1,0.6 0.2,0.5 0.1,0.5 0.2,0.4 0.2,0.4 0.1,0.5 0.2,0.3 0.1,0.4 0.2,0.3 0.1,0.3 0.2,0.3 0.2,0.3 0.1,0.2 0.2,0.3 0.1,0.2 0.2,0.2 0.1,0.2 0.2,0.2 0.1,0.1 0.2,0.2 0.2,0.2 0.1,0.1 0.2,0.2 0.1,0.2 0.2,0.1 0.1,0.2 0.2,0.1 0.2,0.2 0.1,0.2 0.2,0.2 0.1,0.2 0.2,0.2 0.1,0.3 0.2,0.2 0.1,0.3 0.2,0.3 0.2,0.3 0.1,0.3 0.2,0.4 0.1,0.3 0.2,0.4 0.1,0.5 0.2,0.5 0.2,0.4 0.1,0.6 0.2,0.5 0.1,0.6 0.2,0.6 0.1,0.7 0.2,0.7 0.1,0.7 0.2,0.8 0.2,0.8 0.1,0.8 0.2,0.9 0.1,0.9 0.2,0.9 0.1,1 0.2,1 0.2,1 0.1,1.1 0.2,1.1 0.1,1.1 0.2,1.2 0.1,1.2 0.2,1.2 0.1,1.3 0.2,1.2 0.2,1.3 0.1,1.3 0.2,1.4 0.1,1.3 0.2,1.4 0.1,1.4 0.2,1.4 0.2,1.4 0.1,1.4 0.2,1.5 0.1,1.4 0.2,1.5 0.1,1.4 0.2,1.5 0.1,1.4 0.2,1.5 0.2,1.5 0.1,1.4 0.2,1.4 0.1,1.5 0.2,1.4 0.1,1.4 0.2,1.4 0.1,1.4 0.2,1.3 0.2,1.4 0.1,1.3 0.2,1.3 0.1,1.3 0.2,1.3 0.1,1.2 0.2,1.2 0.2,1.2 0.1,1.2 0.2,1.1 0.1,1.1 0.2,1.1 0.1,1 0.2,1 0.1,1 0.2,1 0.2,0.9 0.1,0.9 0.2,0.9 0.1,0.8 0.2,0.8 0.1,0.8 0.2,0.7 0.2,0.7 0.1,0.7 0.2,0.6 0.1,0.7 0.2,0.6 0.1,0.5 0.2,0.6 0.1,0.5 0.2,0.4 0.2,0.5 0.1,0.4 0.2,0.4 0.1,0.4 0.2,0.3 0.1,0.4 0.2,0.3 0.2,0.2 0.1,0.3 0.2,0.2 0.1,0.2 0.2,0.2 0.1,0.2 0.2,0.1 0.1,0.1 0.2,0.1 0.2,0.1 0.1,0.1 h 0.2 l 0.1,0.1 h 0.2 0.1 0.2 l 0.2,-0.1 h 0.1 l 0.2,-0.1 0.1,-0.1 0.2,-0.1 0.1,-0.1 0.2,-0.2 0.1,-0.1 0.2,-0.2 0.2,-0.2 0.1,-0.2 0.2,-0.2 0.1,-0.3 0.2,-0.2 0.1,-0.3 0.2,-0.3 0.2,-0.3 0.1,-0.3 0.2,-0.4 0.1,-0.3 0.2,-0.4 0.1,-0.4 0.2,-0.4 0.1,-0.4 0.2,-0.4 0.2,-0.4 0.1,-0.5 0.2,-0.5 0.1,-0.5 0.2,-0.5 0.1,-0.5 0.2,-0.5 0.2,-0.5 0.1,-0.6 0.2,-0.6 0.1,-0.6 0.2,-0.5 0.1,-0.7 0.2,-0.6 0.1,-0.6 0.2,-0.6 0.2,-0.7 0.1,-0.6 0.2,-0.7 0.1,-0.6 0.2,-0.7 0.1,-0.7 0.2,-0.7 0.2,-0.7 0.1,-0.7 0.2,-0.7 0.1,-0.7 0.2,-0.7 0.1,-0.7 0.2,-0.7 0.1,-0.7 0.2,-0.7 0.2,-0.7 0.1,-0.7 0.2,-0.7 0.1,-0.7 0.2,-0.7 0.1,-0.7 0.2,-0.7 0.2,-0.7 0.1,-0.7 0.2,-0.6 0.1,-0.7 0.2,-0.7 0.1,-0.6 0.2,-0.7 0.1,-0.6 0.2,-0.6 0.2,-0.6 0.1,-0.6 0.2,-0.6 0.1,-0.6 0.2,-0.6 0.1,-0.5 0.2,-0.6 0.2,-0.5 0.1,-0.6 0.2,-0.5 0.1,-0.5 0.2,-0.5 0.1,-0.5 0.2,-0.4 0.1,-0.5 0.2,-0.4 0.2,-0.5 0.1,-0.4 0.2,-0.4 0.1,-0.4 0.2,-0.4 0.1,-0.4 0.2,-0.4 0.2,-0.3 0.1,-0.4 0.2,-0.3 0.1,-0.4 0.2,-0.3 0.1,-0.3 0.2,-0.3 0.1,-0.3 0.2,-0.3 0.2,-0.3 0.1,-0.3 0.2,-0.3 0.1,-0.3 0.2,-0.2 0.1,-0.3 0.2,-0.2 0.2,-0.3 0.1,-0.3 0.2,-0.2 0.1,-0.2 0.2,-0.3 0.1,-0.2 0.2,-0.3 0.1,-0.2 0.2,-0.2 0.2,-0.3 0.1,-0.2 0.2,-0.3 0.1,-0.2 0.2,-0.2 0.1,-0.3 0.2,-0.2 0.2,-0.2 0.1,-0.3 0.2,-0.2 0.1,-0.3 0.2,-0.2 0.1,-0.2 0.2,-0.3 0.1,-0.2 0.2,-0.3 0.2,-0.3 0.1,-0.2 0.2,-0.3 0.1,-0.2 0.2,-0.3 0.1,-0.3 0.2,-0.2 0.2,-0.3 0.1,-0.3 0.2,-0.3 0.1,-0.2 0.2,-0.3 0.1,-0.3 0.2,-0.3 0.1,-0.3 0.2,-0.3 0.2,-0.3 0.1,-0.3 0.2,-0.3 0.1,-0.3 0.2,-0.3 0.1,-0.3 0.2,-0.3 0.2,-0.3 0.1,-0.3 0.2,-0.3 0.1,-0.3 0.2,-0.3 0.1,-0.3 0.2,-0.3 0.1,-0.4 0.2,-0.3 0.2,-0.3 0.1,-0.3 0.2,-0.3 0.1,-0.3 0.2,-0.3 0.1,-0.4 0.2,-0.3 0.2,-0.3 0.1,-0.3 0.2,-0.3 0.1,-0.3 0.2,-0.3 0.1,-0.4 0.2,-0.3 0.1,-0.3 0.2,-0.3 0.2,-0.3 0.1,-0.3 0.2,-0.3 0.1,-0.3 0.2,-0.3 0.1,-0.3 0.2,-0.3 0.2,-0.3 0.1,-0.3 0.2,-0.3 0.1,-0.3 0.2,-0.2 0.1,-0.3 0.2,-0.3 0.1,-0.3 0.2,-0.3 0.2,-0.2 0.1,-0.3 0.2,-0.3 0.1,-0.2 0.2,-0.3 0.1,-0.2 0.2,-0.3 0.2,-0.3 0.1,-0.2 0.2,-0.3 0.1,-0.2 0.2,-0.2 0.1,-0.3 0.2,-0.2 0.1,-0.3 0.2,-0.2 0.2,-0.2 0.1,-0.2 0.2,-0.3 0.1,-0.2 0.2,-0.2 0.1,-0.2 0.2,-0.3 0.2,-0.2 0.1,-0.2 0.2,-0.2 0.1,-0.2 0.2,-0.2 0.1,-0.2 0.2,-0.2 0.1,-0.3 0.2,-0.2 0.2,-0.2 0.1,-0.2 0.2,-0.2 0.1,-0.2 0.2,-0.2 0.1,-0.2 0.2,-0.2 0.2,-0.3 0.1,-0.2 0.2,-0.2 0.1,-0.2 0.2,-0.2 0.1,-0.2 0.2,-0.2 0.1,-0.2 0.2,-0.3 0.2,-0.2 0.1,-0.2 0.2,-0.2 0.1,-0.2 0.2,-0.2 0.1,-0.2 0.2,-0.3 0.2,-0.2 0.1,-0.2 0.2,-0.2 0.1,-0.2 0.2,-0.2 0.1,-0.2 0.2,-0.2 0.1,-0.2 0.2,-0.2 0.2,-0.2 0.1,-0.2 0.2,-0.2 0.1,-0.2 0.2,-0.2 0.1,-0.1 0.2,-0.2 0.2,-0.2 0.1,-0.1 0.2,-0.2 0.1,-0.1 0.2,-0.1 0.1,-0.2 0.2,-0.1 0.1,-0.1 0.2,-0.1 0.2,-0.1 0.1,-0.1 h 0.2 l 0.1,-0.1 0.2,-0.1 h 0.1 0.2 0.2 l 0.1,-0.1 h 0.2 l 0.1,0.1 h 0.2 0.1 l 0.2,0.1 h 0.1 l 0.2,0.1 0.2,0.1 0.1,0.1 0.2,0.1 0.1,0.1 0.2,0.1 0.1,0.2 0.2,0.1 0.2,0.2 0.1,0.1 0.2,0.2 0.1,0.2 0.2,0.2 0.1,0.2 0.2,0.2 0.1,0.2 0.2,0.2 0.2,0.2 0.1,0.3 0.2,0.2 0.1,0.2 0.2,0.3 0.1,0.2 0.2,0.2 0.2,0.3 0.1,0.2 0.2,0.2 0.1,0.3 0.2,0.2 0.1,0.2 0.2,0.3 0.1,0.2 0.2,0.2 0.2,0.2 0.1,0.2 0.2,0.2 0.1,0.2 0.2,0.2 0.1,0.2 0.2,0.1 0.2,0.2 0.1,0.1 0.2,0.2 0.1,0.1 0.2,0.1 0.1,0.1 0.2,0.1 0.1,0.1 0.2,0.1 h 0.2 0.1 l 0.2,0.1 h 0.1 0.2 0.1 0.2 0.2 l 0.1,-0.1 h 0.2 l 0.1,-0.1 0.2,-0.1 h 0.1 l 0.2,-0.1 0.1,-0.1 0.2,-0.1 0.2,-0.2 0.1,-0.1 0.2,-0.1 0.1,-0.2 0.2,-0.1 0.1,-0.2 0.2,-0.1 0.2,-0.2 0.1,-0.1 0.2,-0.2 0.1,-0.2 0.2,-0.2 0.1,-0.2 0.2,-0.1 0.1,-0.2 0.2,-0.2 0.2,-0.2 0.1,-0.2 0.2,-0.2 0.1,-0.1 0.2,-0.2 0.1,-0.2 0.2,-0.2 0.2,-0.1 0.1,-0.2 0.2,-0.1 0.1,-0.2 0.2,-0.2 0.1,-0.1 0.2,-0.1 0.1,-0.2 0.2,-0.1 0.2,-0.1 0.1,-0.1 0.2,-0.1 0.1,-0.1 0.2,-0.1 0.1,-0.1 0.2,-0.1 h 0.2 l 0.1,-0.1 0.2,-0.1 h 0.1 l 0.2,-0.1 h 0.1 0.2 0.1 0.2 0.2 0.1 0.2 0.1 0.2 0.1 l 0.2,0.1 h 0.2 l 0.1,0.1 h 0.2 l 0.1,0.1 h 0.2 l 0.1,0.1 0.2,0.1 0.1,0.1 h 0.2 l 0.2,0.1 0.1,0.1 0.2,0.1 0.1,0.1 0.2,0.1 0.1,0.1 0.2,0.1 0.2,0.1 0.1,0.1 0.2,0.1 0.1,0.1 0.2,0.1 0.1,0.1 0.2,0.1 0.1,0.1 0.2,0.1 0.2,0.1 0.1,0.1 0.2,0.1 h 0.1 l 0.2,0.1 0.1,0.1 0.2,0.1 0.2,0.1 h 0.1 l 0.2,0.1 h 0.1 l 0.2,0.1 h 0.1 l 0.2,0.1 h 0.1 0.2 0.2 0.1 0.2 0.1 l 0.2,-0.1 h 0.1 l 0.2,-0.1 h 0.2 l 0.1,-0.1 0.2,-0.1 0.1,-0.1 0.2,-0.2 0.1,-0.1 0.2,-0.2 0.1,-0.2 0.2,-0.2 0.2,-0.2 0.1,-0.3 0.2,-0.2 0.1,-0.3 0.2,-0.4 0.1,-0.3 0.2,-0.4 0.2,-0.4 0.1,-0.4 0.2,-0.4 0.1,-0.5 0.2,-0.5 0.1,-0.6 0.2,-0.5 0.1,-0.6 0.2,-0.7 0.2,-0.6 0.1,-0.7 0.2,-0.8 0.1,-0.8 0.2,-0.8 0.1,-0.8 0.2,-0.9 0.2,-1 0.1,-0.9 0.2,-1 0.1,-1.1 0.2,-1.1 0.1,-1.1 0.2,-1.2 0.1,-1.2 0.2,-1.3 0.2,-1.3 0.1,-1.4 0.2,-1.4 0.1,-1.4 0.2,-1.5 0.1,-1.6 0.2,-1.6 0.2,-1.6 0.1,-1.7 0.2,-1.7 0.1,-1.8 0.2,-1.8 0.1,-1.8 0.2,-1.9 0.1,-2 0.2,-2 0.2,-2 0.1,-2.1 0.2,-2.1 0.1,-2.1 0.2,-2.2 0.1,-2.3 0.2,-2.2 0.2,-2.4 0.1,-2.3 0.2,-2.4 0.1,-2.4 0.2,-2.5 0.1,-2.5 0.2,-2.5 0.1,-2.6 0.2,-2.6 0.2,-2.6 0.1,-2.6 0.2,-2.7 0.1,-2.7 0.2,-2.7 0.1,-2.8 0.2,-2.8 0.2,-2.8 0.1,-2.8 0.2,-2.8 0.1,-2.9 0.2,-2.9 0.1,-2.9 0.2,-2.9 0.1,-2.9 0.2,-3 0.2,-2.9 0.1,-3 0.2,-3 0.1,-2.9 0.2,-3 0.1,-3 0.2,-3 0.2,-3 0.1,-3 0.2,-3 0.1,-3 0.2,-3 0.1,-3 0.2,-3 0.1,-3 0.2,-3 0.2,-3 0.1,-3 0.2,-2.9 0.1,-3 0.2,-2.9 0.1,-2.9 0.2,-2.9 0.2,-2.9 0.1,-2.9 0.2,-2.8 0.1,-2.8 0.2,-2.8 0.1,-2.8 0.2,-2.8 0.1,-2.7 0.2,-2.7 0.2,-2.7 0.1,-2.6 0.2,-2.6 0.1,-2.6 0.2,-2.5 0.1,-2.5 0.2,-2.5 0.2,-2.5 0.1,-2.4 0.2,-2.3 0.1,-2.3 0.2,-2.3 0.1,-2.3 0.2,-2.2 0.1,-2.1 0.2,-2.1 0.2,-2.1 0.1,-2 0.2,-2 0.1,-1.9 0.2,-1.9 0.1,-1.8 0.2,-1.8 0.2,-1.8 0.1,-1.7 0.2,-1.6 0.1,-1.6 0.2,-1.5 0.1,-1.5 0.2,-1.5 0.1,-1.4 0.2,-1.3 0.2,-1.3 0.1,-1.3 0.2,-1.2 0.1,-1.2 0.2,-1.1 0.1,-1.1 0.2,-1 0.2,-1 0.1,-1 0.2,-0.9 0.1,-0.9 0.2,-0.8 0.1,-0.8 0.2,-0.7 0.1,-0.8 0.2,-0.7 0.2,-0.6 0.1,-0.7 0.2,-0.6 0.1,-0.5 0.2,-0.6 0.1,-0.5 0.2,-0.5 0.2,-0.5 0.1,-0.4 0.2,-0.5 0.1,-0.4 0.2,-0.4 0.1,-0.4 0.2,-0.3 0.1,-0.4 0.2,-0.4 0.2,-0.3 0.1,-0.3 0.2,-0.4 0.1,-0.3 0.2,-0.3 0.1,-0.3 0.2,-0.4 0.2,-0.3 0.1,-0.3 0.2,-0.3 0.1,-0.4 0.2,-0.3 0.1,-0.3 0.2,-0.4 0.1,-0.3 0.2,-0.3 0.2,-0.4 0.1,-0.4 0.2,-0.3 0.1,-0.4 0.2,-0.4 0.1,-0.4 0.2,-0.4 0.2,-0.4 0.1,-0.4 0.2,-0.4 0.1,-0.4 0.2,-0.4 0.1,-0.5 0.2,-0.4 0.1,-0.4 0.2,-0.5 0.2,-0.4 0.1,-0.5 0.2,-0.4 0.1,-0.5 0.2,-0.4 0.1,-0.4 0.2,-0.5 0.2,-0.4 0.1,-0.5 0.2,-0.4 0.1,-0.4 0.2,-0.5 0.1,-0.4 0.2,-0.4 0.1,-0.4 0.2,-0.4 0.2,-0.4 0.1,-0.4 0.2,-0.4 0.1,-0.3 0.2,-0.4 0.1,-0.3 0.2,-0.3 0.2,-0.4 0.1,-0.3 0.2,-0.2 0.1,-0.3 0.2,-0.3 0.1,-0.2 0.2,-0.3 0.1,-0.2 0.2,-0.2 0.2,-0.2 0.1,-0.2 0.2,-0.2 0.1,-0.2 0.2,-0.1 0.1,-0.1 0.2,-0.2 0.2,-0.1 0.1,-0.1 0.2,-0.1 0.1,-0.1 h 0.2 l 0.1,-0.1 h 0.2 l 0.1,-0.1 h 0.2 0.2 0.1 0.2 0.1 0.2 l 0.1,0.1 h 0.2 0.2 l 0.1,0.1 0.2,0.1 h 0.1 l 0.2,0.1 0.1,0.1 0.2,0.1 0.1,0.1 h 0.2 l 0.2,0.2 0.1,0.1 0.2,0.1 0.1,0.1 0.2,0.1 0.1,0.2 0.2,0.1 0.2,0.1 0.1,0.2 0.2,0.1 0.1,0.2 0.2,0.1 0.1,0.2 0.2,0.2 0.1,0.1 0.2,0.2 0.2,0.2 0.1,0.2 0.2,0.2 0.1,0.2 0.2,0.2 0.1,0.2 0.2,0.2 0.2,0.2 0.1,0.2 0.2,0.2 0.1,0.2 0.2,0.2 0.1,0.3 0.2,0.2 0.1,0.2 0.2,0.3 0.2,0.2 0.1,0.3 0.2,0.2 0.1,0.3 0.2,0.2 0.1,0.3 0.2,0.3 0.2,0.2 0.1,0.3 0.2,0.3 0.1,0.3 0.2,0.3 0.1,0.3 0.2,0.3 0.1,0.3 0.2,0.3 0.2,0.4 0.1,0.3 0.2,0.3 0.1,0.4 0.2,0.4 0.1,0.3 0.2,0.4 0.2,0.4 0.1,0.4 0.2,0.5 0.1,0.4 0.2,0.4 0.1,0.5 0.2,0.5 0.1,0.5 0.2,0.5 0.2,0.5 0.1,0.5 0.2,0.6 0.1,0.6 0.2,0.5 0.1,0.7 0.2,0.6 0.2,0.6 0.1,0.7 0.2,0.7 0.1,0.7 0.2,0.7 0.1,0.7 0.2,0.8 0.1,0.8 0.2,0.8 0.2,0.8 0.1,0.9 0.2,0.8 0.1,0.9 0.2,0.9 0.1,1 0.2,0.9 0.2,1 0.1,1 0.2,1 0.1,1 0.2,1.1 0.1,1 0.2,1.1 0.1,1.1 0.2,1.1 0.2,1.1 0.1,1.2 0.2,1.1 0.1,1.2 0.2,1.2 0.1,1.2 0.2,1.2 0.2,1.2 0.1,1.2 0.2,1.2 0.1,1.3 0.2,1.2 0.1,1.3 0.2,1.2 0.1,1.3 0.2,1.2 0.2,1.3 0.1,1.3 0.2,1.2 0.1,1.3 0.2,1.3 0.1,1.3 0.2,1.2 0.2,1.3 0.1,1.3 0.2,1.2 0.1,1.3 0.2,1.3 0.1,1.2 0.2,1.3 0.1,1.2 0.2,1.3 0.2,1.2 0.1,1.3 0.2,1.2 0.1,1.2 0.2,1.2 0.1,1.2 0.2,1.3 0.2,1.1 0.1,1.2 0.2,1.2 0.1,1.2 0.2,1.2 0.1,1.1 0.2,1.2 0.1,1.1 0.2,1.1 0.2,1.2 0.1,1.1 0.2,1.1 0.1,1.1 0.2,1.1 0.1,1 0.2,1.1 0.2,1 0.1,1.1 0.2,1 0.1,1 0.2,1 0.1,1 0.2,1 0.1,0.9 0.2,1 0.2,0.9 0.1,0.9 0.2,0.9 0.1,0.9 0.2,0.9 0.1,0.8 0.2,0.8 0.2,0.8 0.1,0.8 0.2,0.8 0.1,0.8 0.2,0.7 0.1,0.7 0.2,0.7 0.1,0.7 0.2,0.6 0.2,0.7 0.1,0.6 0.2,0.6 0.1,0.6 0.2,0.5 0.1,0.5 0.2,0.6 0.2,0.4 0.1,0.5 0.2,0.5 0.1,0.4 0.2,0.4 0.1,0.4 0.2,0.4 0.1,0.3 0.2,0.4 0.2,0.3 0.1,0.3 0.2,0.3 0.1,0.3 0.2,0.3 0.1,0.2 0.2,0.3 0.2,0.2 0.1,0.2 0.2,0.2 0.1,0.2 0.2,0.2 0.1,0.2 0.2,0.2 0.1,0.1 0.2,0.2 0.2,0.1 0.1,0.2 0.2,0.2 0.1,0.1 0.2,0.2 0.1,0.1 0.2,0.2 0.2,0.1 0.1,0.2 0.2,0.1 0.1,0.2 0.2,0.2 0.1,0.1 0.2,0.2 0.1,0.2 0.2,0.2 0.2,0.2 0.1,0.2 0.2,0.2 0.1,0.2 0.2,0.2 0.1,0.3 0.2,0.2 0.2,0.3 0.1,0.2 0.2,0.3 0.1,0.3 0.2,0.3 0.1,0.3 0.2,0.3 0.1,0.3 0.2,0.4 0.2,0.3 0.1,0.4 0.2,0.4 0.1,0.3 0.2,0.4 0.1,0.4 0.2,0.4 0.2,0.5 0.1,0.4 0.2,0.4 0.1,0.5 0.2,0.4 0.1,0.5 0.2,0.5 0.1,0.5 0.2,0.5 0.2,0.5 0.1,0.5 0.2,0.5 0.1,0.6 0.2,0.5 0.1,0.6 0.2,0.5 0.2,0.6 0.1,0.6 0.2,0.6 0.1,0.6 0.2,0.6 0.1,0.6 0.2,0.6 0.1,0.7 0.2,0.6 0.2,0.6 0.1,0.7 0.2,0.7 0.1,0.7 0.2,0.6 0.1,0.7 0.2,0.8 0.2,0.7 0.1,0.7 0.2,0.7 0.1,0.8 0.2,0.8 0.1,0.7 0.2,0.8 0.1,0.8 0.2,0.8 0.2,0.8 0.1,0.9 0.2,0.8 0.1,0.9 0.2,0.8 0.1,0.9 0.2,0.9 0.2,0.9 0.1,0.9 0.2,0.9 0.1,0.9 0.2,1 0.1,1 0.2,0.9 0.1,1 0.2,1 0.2,1 0.1,1 0.2,1 0.1,1 0.2,1.1 0.1,1 0.2,1 0.2,1.1 0.1,1.1 0.2,1 0.1,1.1 0.2,1.1 0.1,1.1 0.2,1 0.1,1.1 0.2,1.1 0.2,1.1 0.1,1.1 0.2,1.1 0.1,1.1 0.2,1 0.1,1.1 0.2,1.1 0.1,1.1 0.2,1 0.2,1.1 0.1,1 0.2,1.1 0.1,1 0.2,1.1 0.1,1 0.2,1 0.2,1 0.1,1 0.2,0.9 0.1,1 0.2,1 0.1,0.9 0.2,0.9 0.1,0.9 0.2,0.9 0.2,0.9 0.1,0.9 0.2,0.8 0.1,0.9 0.2,0.8 0.1,0.8 0.2,0.8 0.2,0.8 0.1,0.7 0.2,0.8 0.1,0.7 0.2,0.7 0.1,0.7 0.2,0.7 0.1,0.7 0.2,0.6 0.2,0.6 0.1,0.7 0.2,0.6 0.1,0.5 0.2,0.6 0.1,0.6 0.2,0.5 0.2,0.5 0.1,0.6 0.2,0.5 0.1,0.5 0.2,0.4 0.1,0.5 0.2,0.5 0.1,0.4 0.2,0.4 0.2,0.4 0.1,0.4 0.2,0.4 0.1,0.4 0.2,0.4 0.1,0.3 0.2,0.4 0.2,0.3 0.1,0.3 0.2,0.4 0.1,0.3 0.2,0.3 0.1,0.3 0.2,0.2 0.1,0.3 0.2,0.2 0.2,0.3 0.1,0.2 0.2,0.3 0.1,0.2 0.2,0.2 0.1,0.2 0.2,0.2 0.2,0.2 0.1,0.1 0.2,0.2 0.1,0.2 0.2,0.1 0.1,0.1 0.2,0.2 0.1,0.1 0.2,0.1 0.2,0.1 0.1,0.1 0.2,0.1 h 0.1 l 0.2,0.1 0.1,0.1 h 0.2 0.2 l 0.1,0.1 h 0.2 0.1 0.2 0.1 l 0.2,-0.1 h 0.1 l 0.2,-0.1 h 0.2 l 0.1,-0.1 0.2,-0.1 h 0.1 l 0.2,-0.1 0.1,-0.2 0.2,-0.1 0.2,-0.1 0.1,-0.2 0.2,-0.1 0.1,-0.2 0.2,-0.2 0.1,-0.2 0.2,-0.2 0.1,-0.3 0.2,-0.2 0.2,-0.3 0.1,-0.3 0.2,-0.3 0.1,-0.3 0.2,-0.3 0.1,-0.4 0.2,-0.3 0.2,-0.4 0.1,-0.4 0.2,-0.5 0.1,-0.4 0.2,-0.5 0.1,-0.5 0.2,-0.5 0.1,-0.5 0.2,-0.6 0.2,-0.6 0.1,-0.6 0.2,-0.6 0.1,-0.6 0.2,-0.7 0.1,-0.7 0.2,-0.7 0.2,-0.8 0.1,-0.8 0.2,-0.8 0.1,-0.8 0.2,-0.8 0.1,-0.9 0.2,-0.9 0.1,-0.9 0.2,-1 0.2,-0.9 0.1,-1 0.2,-1.1 0.1,-1 0.2,-1 0.1,-1.1 0.2,-1.1 0.2,-1.1 0.1,-1.2 0.2,-1.1 0.1,-1.2 0.2,-1.2 0.1,-1.2 0.2,-1.2 0.1,-1.2 0.2,-1.2 0.2,-1.2 0.1,-1.3 0.2,-1.2 0.1,-1.3 0.2,-1.2 0.1,-1.2 0.2,-1.3 0.2,-1.2 0.1,-1.2 0.2,-1.3 0.1,-1.2 0.2,-1.2 0.1,-1.1 0.2,-1.2 0.1,-1.2 0.2,-1.1 0.2,-1.1 0.1,-1.1 0.2,-1 0.1,-1.1 0.2,-1 0.1,-0.9 0.2,-1 0.2,-0.9 0.1,-0.8 0.2,-0.9 0.1,-0.8 0.2,-0.7 0.1,-0.7 0.2,-0.7 0.1,-0.6 0.2,-0.6 0.2,-0.6 0.1,-0.5 0.2,-0.4 0.1,-0.4 0.2,-0.4 0.1,-0.3 0.2,-0.2 0.2,-0.2 0.1,-0.2 0.2,-0.1 0.1,-0.1 h 0.2 l 0.1,0.1 0.2,0.1 0.1,0.1 0.2,0.2 0.2,0.2 0.1,0.3 0.2,0.3 0.1,0.4 0.2,0.4 0.1,0.5 0.2,0.5 0.2,0.5 0.1,0.6 0.2,0.7 0.1,0.6 0.2,0.8 0.1,0.7 0.2,0.8 0.1,0.8 0.2,0.9 0.2,0.9 0.1,0.9 0.2,0.9 0.1,1 0.2,1 0.1,1.1 0.2,1 0.2,1.1 0.1,1.1 0.2,1.1 0.1,1.2 0.2,1.1 0.1,1.2 0.2,1.2 0.1,1.2 0.2,1.2 0.2,1.2 0.1,1.3 0.2,1.2 0.1,1.3 0.2,1.2 0.1,1.3 0.2,1.3 0.2,1.3 0.1,1.2 0.2,1.3 0.1,1.3 0.2,1.3 0.1,1.2 0.2,1.3 0.1,1.3 0.2,1.2 0.2,1.3 0.1,1.2 0.2,1.3 0.1,1.2 0.2,1.2 0.1,1.3 0.2,1.2 0.2,1.2 0.1,1.1 0.2,1.2 0.1,1.2 0.2,1.1 0.1,1.2 0.2,1.1 0.1,1.1 0.2,1.1 0.2,1 0.1,1.1 0.2,1.1 0.1,1 0.2,1 0.1,1 0.2,1 0.2,1 0.1,0.9 0.2,0.9 0.1,1 0.2,0.9 0.1,0.9 0.2,0.8 0.1,0.9 0.2,0.8 0.2,0.8 0.1,0.8 0.2,0.8 0.1,0.8 0.2,0.7 0.1,0.7 0.2,0.7 0.2,0.7 0.1,0.7 0.2,0.7 0.1,0.6 0.2,0.6 0.1,0.7 0.2,0.5 0.1,0.6 0.2,0.6 0.2,0.5 0.1,0.5 0.2,0.5 0.1,0.5 0.2,0.5 0.1,0.4 0.2,0.5 0.2,0.4 0.1,0.4 0.2,0.4 0.1,0.4 0.2,0.3 0.1,0.4 0.2,0.3 0.1,0.3 0.2,0.3 0.2,0.2 0.1,0.3 0.2,0.2 0.1,0.3 0.2,0.2 0.1,0.2 0.2,0.1 0.2,0.2 0.1,0.2 0.2,0.1 0.1,0.1 0.2,0.1 0.1,0.1 0.2,0.1 h 0.1 l 0.2,0.1 h 0.2 l 0.1,0.1 h 0.2 0.1 l 0.2,-0.1 h 0.1 0.2 l 0.2,-0.1 h 0.1 l 0.2,-0.1 0.1,-0.1 0.2,-0.1 0.1,-0.1 0.2,-0.1 0.1,-0.1 0.2,-0.2 0.2,-0.1 0.1,-0.2 0.2,-0.1 0.1,-0.2 0.2,-0.1 0.1,-0.2 0.2,-0.2 0.2,-0.2 0.1,-0.2 0.2,-0.2 0.1,-0.2 0.2,-0.2 0.1,-0.2 0.2,-0.2 0.1,-0.2 0.2,-0.2 0.2,-0.2 0.1,-0.3 0.2,-0.2 0.1,-0.2 0.2,-0.2 0.1,-0.2 0.2,-0.2 0.2,-0.2 0.1,-0.2 0.2,-0.2 0.1,-0.2 0.2,-0.2 0.1,-0.2 0.2,-0.2 0.1,-0.2 0.2,-0.1 0.2,-0.2 0.1,-0.1 0.2,-0.2 0.1,-0.1 0.2,-0.2 0.1,-0.1 0.2,-0.1 0.2,-0.1 0.1,-0.1 0.2,-0.1 0.1,-0.1 0.2,-0.1 h 0.1 l 0.2,-0.1 h 0.1 l 0.2,-0.1 h 0.2 0.1 l 0.2,-0.1 h 0.1 0.2 l 0.1,0.1 h 0.2 0.2 0.1 l 0.2,0.1 h 0.1 l 0.2,0.1 0.1,0.1 h 0.2 l 0.1,0.1 0.2,0.1 0.2,0.1 0.1,0.1 h 0.2 l 0.1,0.1 0.2,0.1 0.1,0.1 0.2,0.2 0.2,0.1 0.1,0.1 0.2,0.1 0.1,0.1 0.2,0.1 0.1,0.1 0.2,0.1 0.1,0.1 0.2,0.1 0.2,0.1 0.1,0.1 0.2,0.1 0.1,0.1 0.2,0.1 0.1,0.1 0.2,0.1 h 0.2 l 0.1,0.1 0.2,0.1 h 0.1 l 0.2,0.1 h 0.1 l 0.2,0.1 h 0.1 0.2 0.2 0.1 0.2 0.1 0.2 0.1 0.2 l 0.2,-0.1 h 0.1 0.2 l 0.1,-0.1 0.2,-0.1 h 0.1 l 0.2,-0.1 0.1,-0.1 0.2,-0.1 0.2,-0.1 0.1,-0.1 0.2,-0.1 0.1,-0.1 0.2,-0.1 0.1,-0.1 0.2,-0.1 0.2,-0.2 0.1,-0.1 0.2,-0.1 0.1,-0.2 0.2,-0.1 0.1,-0.1 0.2,-0.2 0.1,-0.1 0.2,-0.2 0.2,-0.1 0.1,-0.2 0.2,-0.1 0.1,-0.2 0.2,-0.1 0.1,-0.2 0.2,-0.2 0.2,-0.1 0.1,-0.2 0.2,-0.1 0.1,-0.2 0.2,-0.1 0.1,-0.2 0.2,-0.2 0.1,-0.1 0.2,-0.2 0.2,-0.1 0.1,-0.2 0.2,-0.2 0.1,-0.2 0.2,-0.1 0.1,-0.2 0.2,-0.2 0.2,-0.2 0.1,-0.2 0.2,-0.2 0.1,-0.2 0.2,-0.2 0.1,-0.2 0.2,-0.3 0.1,-0.2 0.2,-0.3 0.2,-0.2 0.1,-0.3 0.2,-0.3 0.1,-0.3 0.2,-0.4 0.1,-0.3 0.2,-0.4 0.2,-0.4 0.1,-0.4 0.2,-0.5 0.1,-0.4 0.2,-0.5 0.1,-0.6 0.2,-0.5 0.1,-0.6 0.2,-0.6 0.2,-0.6 0.1,-0.7 0.2,-0.7 0.1,-0.8 0.2,-0.7 0.1,-0.9 0.2,-0.8 0.2,-0.9 0.1,-0.9 0.2,-1 0.1,-1 0.2,-1.1 0.1,-1.1 0.2,-1.1 0.1,-1.2 0.2,-1.2 0.2,-1.2 0.1,-1.3 0.2,-1.4 0.1,-1.3 0.2,-1.5 0.1,-1.4 0.2,-1.5 0.2,-1.6 0.1,-1.5 0.2,-1.7 0.1,-1.6 0.2,-1.7 0.1,-1.7 0.2,-1.8 0.1,-1.8 0.2,-1.8 0.2,-1.8 0.1,-1.9 0.2,-1.9 0.1,-2 0.2,-2 0.1,-2 0.2,-2 0.2,-2 0.1,-2.1 0.2,-2.1 0.1,-2.1 0.2,-2.1 0.1,-2.1 0.2,-2.1 0.1,-2.2 0.2,-2.2 0.2,-2.2 0.1,-2.1 0.2,-2.2 0.1,-2.2 0.2,-2.3 0.1,-2.2 0.2,-2.2 0.2,-2.2 0.1,-2.2 0.2,-2.2 0.1,-2.2 0.2,-2.2 0.1,-2.2 0.2,-2.2 0.1,-2.2 0.2,-2.2 0.2,-2.1 0.1,-2.2 0.2,-2.2 0.1,-2.1 0.2,-2.1 0.1,-2.1 0.2,-2.1 0.2,-2.1 0.1,-2 0.2,-2.1 0.1,-2 0.2,-2 0.1,-2 0.2,-2 0.1,-1.9 0.2,-1.9 0.2,-1.9 0.1,-1.9 0.2,-1.8 0.1,-1.9 0.2,-1.7 0.1,-1.8 0.2,-1.7 0.2,-1.7 0.1,-1.7 0.2,-1.6 0.1,-1.6 0.2,-1.6 0.1,-1.5 0.2,-1.5 0.1,-1.4 0.2,-1.4 0.2,-1.4 0.1,-1.3 0.2,-1.3 0.1,-1.2 0.2,-1.2 0.1,-1.1 0.2,-1.1 0.2,-1 0.1,-1 0.2,-0.9 0.1,-0.9 0.2,-0.8 0.1,-0.7 0.2,-0.7 0.1,-0.6 0.2,-0.6 0.2,-0.5 0.1,-0.4 0.2,-0.4 0.1,-0.3 0.2,-0.3 0.1,-0.2 0.2,-0.1 h 0.2 0.1 l 0.2,0.1 0.1,0.2 0.2,0.2 0.1,0.3 0.2,0.4 0.1,0.5 0.2,0.5 0.2,0.6 0.1,0.7 0.2,0.7 0.1,0.8 0.2,0.9 0.1,0.9 0.2,1 0.2,1.1 0.1,1.1 0.2,1.2 0.1,1.3 0.2,1.3 0.1,1.4 0.2,1.4 0.1,1.5 0.2,1.6 0.2,1.6 0.1,1.7 0.2,1.7 0.1,1.8 0.2,1.8 0.1,1.9 0.2,1.9 0.2,1.9 0.1,2 0.2,2.1 0.1,2.1 0.2,2.1 0.1,2.1 0.2,2.2 0.1,2.2 0.2,2.2 0.2,2.2 0.1,2.3 0.2,2.3 0.1,2.3 0.2,2.3 0.1,2.4 0.2,2.3 0.2,2.4 0.1,2.3 0.2,2.4 0.1,2.4 0.2,2.4 0.1,2.3 0.2,2.4 0.1,2.4 0.2,2.4 0.2,2.3 0.1,2.4 0.2,2.3 0.1,2.3 0.2,2.3 0.1,2.3 0.2,2.3 0.2,2.3 0.1,2.2 0.2,2.2 0.1,2.2 0.2,2.2 0.1,2.1 0.2,2.1 0.1,2.1 0.2,2.1 0.2,2 0.1,2 0.2,2 0.1,1.9 0.2,1.9 0.1,1.8 0.2,1.9 0.2,1.7 0.1,1.8 0.2,1.7 0.1,1.7 0.2,1.6 0.1,1.6 0.2,1.6 0.1,1.5 0.2,1.5 0.2,1.4 0.1,1.4 0.2,1.4 0.1,1.3 0.2,1.3 0.1,1.2 0.2,1.3 0.2,1.1 0.1,1.2 0.2,1.1 0.1,1.1 0.2,1 0.1,1 0.2,1 0.1,1 0.2,0.9 0.2,0.9 0.1,0.9 0.2,0.8 0.1,0.8 0.2,0.8 0.1,0.8 0.2,0.8 0.2,0.7 0.1,0.8 0.2,0.7 0.1,0.7 0.2,0.6 0.1,0.7 0.2,0.6 0.1,0.7 0.2,0.6 0.2,0.6 0.1,0.7 0.2,0.6 0.1,0.6 0.2,0.6 0.1,0.6 0.2,0.6 0.2,0.6 0.1,0.6 0.2,0.6 0.1,0.6 0.2,0.6 0.1,0.6 0.2,0.6 0.1,0.6 0.2,0.6 0.2,0.6 0.1,0.6 0.2,0.7 0.1,0.6 0.2,0.6 0.1,0.7 0.2,0.6 0.2,0.7 0.1,0.6 0.2,0.7 0.1,0.7 0.2,0.6 0.1,0.7 0.2,0.7 0.1,0.7 0.2,0.7 0.2,0.7 0.1,0.7 0.2,0.7 0.1,0.7 0.2,0.8 0.1,0.7 0.2,0.7 0.2,0.8 0.1,0.7 0.2,0.8 0.1,0.8 0.2,0.7 0.1,0.8 0.2,0.8 0.1,0.8 0.2,0.8 0.2,0.8 0.1,0.8 0.2,0.8 0.1,0.8 0.2,0.9 0.1,0.8 0.2,0.8 0.2,0.9 0.1,0.8 0.2,0.9 0.1,0.9 0.2,0.8 0.1,0.9 0.2,0.9 0.1,0.9 0.2,0.9 0.2,0.9 0.1,0.9 0.2,0.9 0.1,0.9 0.2,1 0.1,0.9 0.2,0.9 0.2,0.9 0.1,1 0.2,0.9 0.1,0.9 0.2,1 0.1,0.9 0.2,0.9 0.1,1 0.2,0.9 0.2,0.9 0.1,0.9 0.2,1 0.1,0.9 0.2,0.9 0.1,0.9 0.2,0.8 0.2,0.9 0.1,0.9 0.2,0.8 0.1,0.9 0.2,0.8 0.1,0.8 0.2,0.8 0.1,0.8 0.2,0.7 0.2,0.8 0.1,0.7 0.2,0.7 0.1,0.7 0.2,0.7 0.1,0.6 0.2,0.6 0.2,0.7 0.1,0.5 0.2,0.6 0.1,0.5 0.2,0.6 0.1,0.5 0.2,0.4 0.1,0.5 0.2,0.4 0.2,0.4 0.1,0.4 0.2,0.4 0.1,0.3 0.2,0.3 0.1,0.3 0.2,0.3 0.2,0.3 0.1,0.2 0.2,0.2 0.1,0.2 0.2,0.2 0.1,0.2 0.2,0.2 0.1,0.1 0.2,0.1 0.2,0.1 0.1,0.1 0.2,0.1 0.1,0.1 h 0.2 l 0.1,0.1 h 0.2 l 0.2,0.1 h 0.1 0.2 0.1 0.2 l 0.1,0.1 h 0.2 0.1 0.2 0.2 0.1 0.2 0.1 0.2 l 0.1,0.1 h 0.2 0.2 l 0.1,0.1 h 0.2 l 0.1,0.1 h 0.2 l 0.1,0.1 0.2,0.1 0.1,0.1 0.2,0.1 0.2,0.1 0.1,0.1 0.2,0.1 0.1,0.2 0.2,0.1 0.1,0.2 0.2,0.2 0.2,0.1 0.1,0.3 0.2,0.2 0.1,0.2 0.2,0.2 0.1,0.3 0.2,0.2 0.1,0.3 0.2,0.3 0.2,0.3 0.1,0.3 0.2,0.3 0.1,0.4 0.2,0.3 0.1,0.4 0.2,0.3 0.2,0.4 0.1,0.4 0.2,0.4 0.1,0.4 0.2,0.4 0.1,0.4 0.2,0.4 0.1,0.4 0.2,0.5 0.2,0.4 0.1,0.4 0.2,0.5 0.1,0.4 0.2,0.5 0.1,0.5 0.2,0.4 0.2,0.5 0.1,0.5 0.2,0.5 0.1,0.4 0.2,0.5 0.1,0.5 0.2,0.5 0.1,0.5 0.2,0.5 0.2,0.5 0.1,0.5 0.2,0.5 0.1,0.5 0.2,0.5 0.1,0.5 0.2,0.5 0.2,0.5 0.1,0.5 0.2,0.6 0.1,0.5 0.2,0.5 0.1,0.5 0.2,0.5 0.1,0.5 0.2,0.6 0.2,0.5 0.1,0.5 0.2,0.5 0.1,0.6 0.2,0.5 0.1,0.5 0.2,0.6 0.2,0.5 0.1,0.5 0.2,0.6 0.1,0.5 0.2,0.5 0.1,0.6 0.2,0.5 0.1,0.5 0.2,0.6 0.2,0.5 0.1,0.5 0.2,0.6 0.1,0.5 0.2,0.5 0.1,0.6 0.2,0.5 0.2,0.5 0.1,0.5 0.2,0.6 0.1,0.5 0.2,0.5 0.1,0.5 0.2,0.5 0.1,0.5 0.2,0.5 0.2,0.5 0.1,0.5 0.2,0.5 0.1,0.4 0.2,0.5 0.1,0.4 0.2,0.5 0.2,0.5 0.1,0.4 0.2,0.4 0.1,0.5 0.2,0.4 0.1,0.4 0.2,0.4 0.1,0.4 0.2,0.4 0.2,0.4 0.1,0.3 0.2,0.4 0.1,0.3 0.2,0.4 0.1,0.3 0.2,0.4 0.2,0.3 0.1,0.3 0.2,0.3 0.1,0.3 0.2,0.3 0.1,0.3 0.2,0.2 0.1,0.3 0.2,0.2 0.2,0.3 0.1,0.2 0.2,0.2 0.1,0.2 0.2,0.3 0.1,0.1 0.2,0.2 0.2,0.2 0.1,0.2 0.2,0.1 0.1,0.2 0.2,0.1 0.1,0.1 0.2,0.2 0.1,0.1 0.2,0.1 h 0.2 l 0.1,0.1 0.2,0.1 h 0.1 l 0.2,0.1 h 0.1 0.2 0.2 0.1 0.2 0.1 l 0.2,-0.1 h 0.1 l 0.2,-0.1 h 0.1 l 0.2,-0.1 0.2,-0.1 0.1,-0.1 0.2,-0.1 0.1,-0.1 0.2,-0.1 0.1,-0.2 0.2,-0.1 0.2,-0.2 0.1,-0.1 0.2,-0.2 0.1,-0.1 0.2,-0.2 0.1,-0.2 0.2,-0.1 0.1,-0.2 0.2,-0.2 0.2,-0.2 0.1,-0.1 0.2,-0.2 0.1,-0.2 0.2,-0.2 0.1,-0.1 0.2,-0.2 0.1,-0.2 0.2,-0.1 0.2,-0.2 0.1,-0.1 0.2,-0.2 0.1,-0.1 0.2,-0.2 0.1,-0.1 0.2,-0.1 0.2,-0.1 0.1,-0.1 0.2,-0.1 h 0.1 l 0.2,-0.1 h 0.1 l 0.2,-0.1 h 0.1 0.2 0.2 0.1 0.2 0.1 l 0.2,0.1 h 0.1 l 0.2,0.1 h 0.2 l 0.1,0.1 0.2,0.1 0.1,0.1 0.2,0.1 0.1,0.2 0.2,0.1 0.1,0.1 0.2,0.2 0.2,0.2 0.1,0.1 0.2,0.2 0.1,0.2 0.2,0.2 0.1,0.2 0.2,0.2 0.2,0.2 0.1,0.2 0.2,0.2 0.1,0.2 0.2,0.2 0.1,0.2 0.2,0.3 0.1,0.2 0.2,0.2 0.2,0.3 0.1,0.2 0.2,0.3 0.1,0.2 0.2,0.2 0.1,0.3 0.2,0.2 0.2,0.2 0.1,0.3 0.2,0.2 0.1,0.3 0.2,0.2 0.1,0.2 0.2,0.2 0.1,0.3 0.2,0.2 0.2,0.2 0.1,0.2 0.2,0.3 0.1,0.2 0.2,0.2 0.1,0.2 0.2,0.2 0.2,0.2 0.1,0.2 0.2,0.2 0.1,0.1 0.2,0.2 0.1,0.2 0.2,0.1 0.1,0.2 0.2,0.2 0.2,0.1 0.1,0.2 0.2,0.1 0.1,0.1 0.2,0.2 0.1,0.1 0.2,0.1 0.2,0.1 0.1,0.1 0.2,0.2 0.1,0.1 0.2,0.1 h 0.1 l 0.2,0.1 0.1,0.1 0.2,0.1 0.2,0.1 0.1,0.1 h 0.2 l 0.1,0.1 0.2,0.1 0.1,0.1 h 0.2 l 0.2,0.1 0.1,0.1 h 0.2 l 0.1,0.1 0.2,0.1 0.1,0.1 h 0.2 l 0.1,0.1 0.2,0.1 0.2,0.1 h 0.1 l 0.2,0.1 0.1,0.1 0.2,0.1 0.1,0.1 0.2,0.1 0.2,0.1 0.1,0.1 0.2,0.1 0.1,0.1 0.2,0.1 0.1,0.1 0.2,0.1 0.1,0.1 0.2,0.1 0.2,0.1 0.1,0.1 0.2,0.1 0.1,0.1 0.2,0.1 0.1,0.2 0.2,0.1 0.2,0.1 0.1,0.1 0.2,0.1 0.1,0.1 0.2,0.1 0.1,0.1 0.2,0.1 0.1,0.1 0.2,0.1 0.2,0.1 h 0.1 l 0.2,0.1 0.1,0.1 0.2,0.1 h 0.1 l 0.2,0.1 h 0.2 l 0.1,0.1 h 0.2 l 0.1,0.1 h 0.2 0.1 l 0.2,0.1 h 0.1 0.2 0.2 0.1 0.2 0.1 0.2 0.1 0.2 l 0.2,-0.1 h 0.1 0.2 l 0.1,-0.1 h 0.2 l 0.1,-0.1 h 0.2 l 0.1,-0.1 h 0.2 l 0.2,-0.1 0.1,-0.1 0.2,-0.1 h 0.1 l 0.2,-0.1 0.1,-0.1 0.2,-0.1 0.2,-0.1 0.1,-0.1 0.2,-0.1 0.1,-0.1 0.2,-0.1 0.1,-0.1 0.2,-0.1 0.1,-0.1 0.2,-0.1 0.2,-0.1 0.1,-0.2 0.2,-0.1 0.1,-0.1 0.2,-0.1 0.1,-0.1 0.2,-0.1 0.2,-0.2 0.1,-0.1 0.2,-0.1 0.1,-0.1 0.2,-0.1 0.1,-0.1 0.2,-0.1 0.1,-0.1 0.2,-0.1 0.2,-0.1 h 0.1 l 0.2,-0.1 0.1,-0.1 0.2,-0.1 h 0.1 l 0.2,-0.1 h 0.2 0.1 l 0.2,-0.1 h 0.1 0.2 0.1 0.2 0.1 0.2 0.2 0.1 l 0.2,0.1 h 0.1 0.2 l 0.1,0.1 0.2,0.1 h 0.2 l 0.1,0.1 0.2,0.1 0.1,0.1 h 0.2 l 0.1,0.1 0.2,0.1 0.1,0.2 0.2,0.1 0.2,0.1 0.1,0.1 0.2,0.1 0.1,0.2 0.2,0.1 0.1,0.2 0.2,0.1 0.2,0.2 0.1,0.2 0.2,0.1 0.1,0.2 0.2,0.2 0.1,0.2 0.2,0.2 0.1,0.2 0.2,0.2 0.2,0.3 0.1,0.2 0.2,0.3 0.1,0.2 0.2,0.3 0.1,0.3 0.2,0.3 0.2,0.3 0.1,0.3 0.2,0.3 0.1,0.4 0.2,0.3 0.1,0.4 0.2,0.4 0.1,0.4 0.2,0.4 0.2,0.4 0.1,0.5 0.2,0.4 0.1,0.5 0.2,0.5 0.1,0.5 0.2,0.5 0.2,0.5 0.1,0.5 0.2,0.5 0.1,0.6 0.2,0.5 0.1,0.6 0.2,0.6 0.1,0.5 0.2,0.6 0.2,0.6 0.1,0.6 0.2,0.6 0.1,0.6 0.2,0.6 0.1,0.5 0.2,0.6 0.2,0.6 0.1,0.6 0.2,0.6 0.1,0.6 0.2,0.5 0.1,0.6 0.2,0.6 0.1,0.5 0.2,0.6 0.2,0.5 0.1,0.6 0.2,0.5 0.1,0.5 0.2,0.5 0.1,0.5 0.2,0.5 0.2,0.5 0.1,0.4 0.2,0.5 0.1,0.4 0.2,0.5 0.1,0.4 0.2,0.4 0.1,0.4 0.2,0.5 0.2,0.4 0.1,0.4 0.2,0.4 0.1,0.3 0.2,0.4 0.1,0.4 0.2,0.4 0.2,0.4 0.1,0.3 0.2,0.4 0.1,0.4 0.2,0.4 0.1,0.4 0.2,0.3 0.1,0.4 0.2,0.4 0.2,0.4 0.1,0.4 0.2,0.5 0.1,0.4 0.2,0.4 0.1,0.5 0.2,0.4 0.2,0.5 0.1,0.5 0.2,0.5 0.1,0.5 0.2,0.5 0.1,0.6 0.2,0.5 0.1,0.6 0.2,0.5 0.2,0.6 0.1,0.6 0.2,0.7 0.1,0.6 0.2,0.6 0.1,0.7 0.2,0.7 0.2,0.6 0.1,0.7 0.2,0.7 0.1,0.7 0.2,0.7 0.1,0.7 0.2,0.7 0.1,0.7 0.2,0.7 0.2,0.7 0.1,0.7 0.2,0.7 0.1,0.6 0.2,0.7 0.1,0.6 0.2,0.7 0.2,0.6 0.1,0.6 0.2,0.5 0.1,0.6 0.2,0.5 0.1,0.5 0.2,0.5 0.1,0.5 0.2,0.4 0.2,0.4 0.1,0.4 0.2,0.4 0.1,0.3 0.2,0.3 0.1,0.3 0.2,0.2 0.2,0.2 0.1,0.3 0.2,0.1 0.1,0.2 0.2,0.1 0.1,0.1 0.2,0.1 0.1,0.1 0.2,0.1 0.2,0.1 h 0.1 0.2 l 0.1,0.1 h 0.2 0.1 0.2 0.2 l 0.1,0.1 h 0.2 0.1 0.2 0.1 0.2 0.1 l 0.2,0.1 h 0.2 0.1 0.2 l 0.1,0.1 h 0.2 0.1 0.2 0.2 l 0.1,0.1 h 0.2 l 0.1,-0.1 h 0.2 0.1 l 0.2,-0.1 h 0.1 l 0.2,-0.1 0.2,-0.1 0.1,-0.2 0.2,-0.1 0.1,-0.2 0.2,-0.2 0.1,-0.2 0.2,-0.3 0.2,-0.3 0.1,-0.3 0.2,-0.3 0.1,-0.4 0.2,-0.4 0.1,-0.4 0.2,-0.5 0.1,-0.5 0.2,-0.5 0.2,-0.6 0.1,-0.5 0.2,-0.6 0.1,-0.6 0.2,-0.7 0.1,-0.6 0.2,-0.7 0.2,-0.6 0.1,-0.7 0.2,-0.7 0.1,-0.7 0.2,-0.7 0.1,-0.6 0.2,-0.7 0.1,-0.7 0.2,-0.6 0.2,-0.6 0.1,-0.7 0.2,-0.5 0.1,-0.6 0.2,-0.6 0.1,-0.5 0.2,-0.5 0.2,-0.4 0.1,-0.5 0.2,-0.4 0.1,-0.3 0.2,-0.4 0.1,-0.3 0.2,-0.2 0.1,-0.2 0.2,-0.2 0.2,-0.2 0.1,-0.1 0.2,-0.1 0.1,-0.1 h 0.2 0.1 0.2 l 0.2,0.1 0.1,0.1 0.2,0.1 0.1,0.1 0.2,0.2 0.1,0.1 0.2,0.2 0.1,0.3 0.2,0.2 0.2,0.3 0.1,0.3 0.2,0.3 0.1,0.3 0.2,0.3 0.1,0.4 0.2,0.3 0.2,0.4 0.1,0.4 0.2,0.4 0.1,0.5 0.2,0.4 0.1,0.5 0.2,0.5 0.1,0.5 0.2,0.5 0.2,0.6 0.1,0.5 0.2,0.6 0.1,0.6 0.2,0.6 0.1,0.7 0.2,0.6 0.2,0.7 0.1,0.8 0.2,0.7 0.1,0.7 0.2,0.8 0.1,0.8 0.2,0.9 0.1,0.8 0.2,0.9 0.2,0.9 0.1,0.9 0.2,0.9 0.1,1 0.2,1 0.1,1 0.2,1 0.2,1 0.1,1.1 0.2,1 0.1,1.1 0.2,1 0.1,1.1 0.2,1.1 0.1,1.1 0.2,1.1 0.2,1.1 0.1,1.1 0.2,1 0.1,1.1 0.2,1 0.1,1.1 0.2,1 0.2,1 0.1,0.9 0.2,1 0.1,0.9 0.2,0.8 0.1,0.9 0.2,0.8 0.1,0.7 0.2,0.7 0.2,0.6 0.1,0.6 0.2,0.5 0.1,0.5 0.2,0.4 0.1,0.3 0.2,0.2 0.2,0.2 0.1,0.1 h 0.2 l 0.1,-0.1 0.2,-0.1 0.1,-0.3 0.2,-0.4 0.1,-0.4 0.2,-0.5 0.2,-0.7 0.1,-0.7 0.2,-0.8 0.1,-0.9 0.2,-1.1 0.1,-1.1 0.2,-1.2 0.2,-1.3 0.1,-1.3 0.2,-1.5 0.1,-1.5 0.2,-1.6 0.1,-1.7 0.2,-1.8 0.1,-1.8 0.2,-1.9 0.2,-1.9 0.1,-1.9 0.2,-2 0.1,-2.1 0.2,-2 0.1,-2.1 0.2,-2.1 0.2,-2.1 0.1,-2 0.2,-2.1 0.1,-2 0.2,-2.1 0.1,-2 0.2,-1.9 0.1,-1.9 0.2,-1.9 0.2,-1.8 0.1,-1.7 0.2,-1.7 0.1,-1.6 0.2,-1.5 0.1,-1.4 0.2,-1.4 0.2,-1.2 0.1,-1.2 0.2,-1.1 0.1,-1 0.2,-0.8 0.1,-0.8 0.2,-0.7 0.1,-0.5 0.2,-0.5 0.2,-0.3 0.1,-0.2 0.2,-0.1 h 0.1 l 0.2,0.1 0.1,0.3 0.2,0.3 0.2,0.5 0.1,0.6 0.2,0.7 0.1,0.8 0.2,0.9 0.1,1.1 0.2,1.1 0.1,1.2 0.2,1.3 0.2,1.4 0.1,1.5 0.2,1.6 0.1,1.6 0.2,1.7 0.1,1.7 0.2,1.8 0.2,1.8 0.1,1.9 0.2,1.9 0.1,1.9 0.2,1.9 0.1,1.9 0.2,1.9 0.1,1.9 0.2,1.8 0.2,1.9 0.1,1.7 0.2,1.8 0.1,1.6 0.2,1.7 0.1,1.5 0.2,1.5 0.2,1.4 0.1,1.3 0.2,1.3 0.1,1.1 0.2,1.1 0.1,1 0.2,0.9 0.1,0.8 0.2,0.7 0.2,0.7 0.1,0.5 0.2,0.5 0.1,0.4 0.2,0.3 0.1,0.2 0.2,0.2 0.2,0.1 h 0.1 l 0.2,-0.1 0.1,-0.1 0.2,-0.2 0.1,-0.2 0.2,-0.3 0.1,-0.4 0.2,-0.4 0.2,-0.4 0.1,-0.6 0.2,-0.6 0.1,-0.6 0.2,-0.8 0.1,-0.7 0.2,-0.9 0.2,-1 0.1,-1 0.2,-1.1 0.1,-1.2 0.2,-1.4 0.1,-1.4 0.2,-1.6 0.1,-1.7 0.2,-1.9 0.2,-2 0.1,-2.1 0.2,-2.4 0.1,-2.5 0.2,-2.6 0.1,-2.9 0.2,-3 0.2,-3.2 0.1,-3.4 0.2,-3.5 0.1,-3.7 0.2,-3.8 0.1,-3.9 0.2,-4.1 0.1,-4.1 0.2,-4.3 0.2,-4.2 0.1,-4.3 0.2,-4.3 0.1,-4.3 0.2,-4.2 0.1,-4.2 0.2,-4.1 0.2,-4 0.1,-3.9 0.2,-3.7 0.1,-3.5 0.2,-3.4 0.1,-3.2 0.2,-3.1 0.1,-2.8 0.2,-2.6 0.2,-2.4 0.1,-2.3 0.2,-2 0.1,-1.9 0.2,-1.6 0.1,-1.5 0.2,-1.3 0.2,-1.2 0.1,-0.9 0.2,-0.8 0.1,-0.7 0.2,-0.5 0.1,-0.4 0.2,-0.3 0.1,-0.1 h 0.2 l 0.2,0.1 0.1,0.3 0.2,0.3 0.1,0.4 0.2,0.6 0.1,0.6 0.2,0.7 0.2,0.8 0.1,0.9 0.2,1 0.1,1 0.2,1 0.1,1.1 0.2,1.2 0.1,1.1 0.2,1.2 0.2,1.1 0.1,1.2 0.2,1.1 0.1,1.1 0.2,1 0.1,1 0.2,0.9 0.2,0.8 0.1,0.8 0.2,0.7 0.1,0.6 0.2,0.5 0.1,0.5 0.2,0.3 0.1,0.3 0.2,0.2 0.2,0.1 0.1,0.1 0.2,-0.1 0.1,-0.1 0.2,-0.1 0.1,-0.2 0.2,-0.3 0.2,-0.3 0.1,-0.4 0.2,-0.4 0.1,-0.4 0.2,-0.4 0.1,-0.5 0.2,-0.5 0.1,-0.5 0.2,-0.5 0.2,-0.5 0.1,-0.4 0.2,-0.4 0.1,-0.4 0.2,-0.4 0.1,-0.3 0.2,-0.3 0.2,-0.3 0.1,-0.2 0.2,-0.1 0.1,-0.2 0.2,-0.1 0.1,-0.1 h 0.2 l 0.1,-0.1 0.2,-0.1 0.2,-0.1 0.1,-0.1 0.2,-0.1 0.1,-0.2 0.2,-0.1 0.1,-0.1 0.2,-0.1 h 0.2 0.1 l 0.2,0.1 0.1,0.3 0.2,0.3 0.1,0.5 0.2,0.6 0.1,0.7 0.2,0.9 0.2,0.9 0.1,1.1 0.2,1.1 0.1,1.2 0.2,1.1 0.1,1.2 0.2,1.1 0.2,1 0.1,0.9 0.2,0.8 0.1,0.6 0.2,0.5 0.1,0.4 0.2,0.2 h 0.1 l 0.2,-0.1 0.2,-0.3 0.1,-0.4 0.2,-0.5 0.1,-0.7 0.2,-0.7 0.1,-0.9 0.2,-0.9 0.2,-1 0.1,-1 0.2,-1 0.1,-1.2 0.2,-1.1 0.1,-1.3 0.2,-1.3 0.1,-1.4 0.2,-1.5 0.2,-1.5 0.1,-1.6 0.2,-1.5 0.1,-1.3 0.2,-1.1 0.1,-0.8 0.2,-0.4 0.2,0.2 0.1,0.6 0.2,1.2 0.1,1.7 0.2,2.2 0.1,2.5 0.2,2.9 0.1,3.1 0.2,3.4 0.2,3.7 0.1,4 0.2,4.2 0.1,4.3 0.2,4.1 0.1,3.5 0.2,2.7 0.2,1.6 0.1,0.6 0.2,-0.2 0.1,-0.5 0.2,-0.4 0.1,-0.1"
             inkscape:connector-curvature="0"
             style="stroke:#f3f300;stroke-width:4;stroke-miterlimit:4;stroke-dasharray:none;stroke-opacity:1" />
        </g>
      </g>
      <g
         style="fill:none;stroke:#00dbee;stroke-width:4;stroke-miterlimit:4;stroke-dasharray:none;stroke-opacity:1"
         transform="matrix(0.26458333,0,0,0.26458333,-256.40691,336.96781)"
         id="gnuplot_plot_2">
        <title
           id="title1152">'/home/anthony/Google Drive/teaching/SP/SP_2019/in-class/motion_cinema/code/frame_pixel_counts.csv' using 2</title>
        <g
           id="g1156"
           style="color:#000000;fill:none;stroke:#00dbee;stroke-width:4;stroke-linecap:butt;stroke-linejoin:miter;stroke-miterlimit:4;stroke-dasharray:none;stroke-opacity:1">
          <path
             id="path1154"
             d="m 71.9,499.9 0.2,2.1 0.1,1.3 0.2,1.1 0.1,0.9 0.2,0.9 0.1,1 0.2,1 0.1,1.1 0.2,1.1 0.2,1.1 0.1,0.9 0.2,0.6 0.1,0.6 0.2,0.4 0.1,0.3 0.2,0.3 0.2,0.3 0.1,0.3 0.2,0.4 0.1,0.4 0.2,0.4 0.1,0.4 0.2,0.3 0.1,0.3 0.2,0.2 h 0.2 0.1 l 0.2,-0.1 0.1,-0.3 0.2,-0.4 0.1,-0.4 0.2,-0.5 0.2,-0.7 0.1,-0.7 0.2,-0.7 0.1,-0.9 0.2,-0.8 0.1,-0.9 0.2,-0.9 0.1,-0.9 0.2,-0.9 0.2,-0.8 0.1,-0.7 0.2,-0.7 0.1,-0.6 0.2,-0.5 0.1,-0.4 0.2,-0.3 0.2,-0.3 0.1,-0.1 0.2,-0.1 h 0.1 0.2 l 0.1,0.1 h 0.2 l 0.1,0.1 0.2,0.1 h 0.2 0.1 0.2 l 0.1,-0.1 0.2,-0.1 0.1,-0.1 0.2,-0.1 0.2,-0.2 0.1,-0.2 0.2,-0.2 0.1,-0.2 0.2,-0.3 0.1,-0.2 0.2,-0.3 0.1,-0.2 0.2,-0.3 0.2,-0.3 0.1,-0.3 0.2,-0.4 0.1,-0.4 0.2,-0.4 0.1,-0.4 0.2,-0.4 0.2,-0.5 0.1,-0.4 0.2,-0.5 0.1,-0.4 0.2,-0.5 0.1,-0.4 0.2,-0.4 0.1,-0.4 0.2,-0.4 0.2,-0.3 0.1,-0.2 0.2,-0.3 0.1,-0.1 0.2,-0.1 0.1,-0.1 0.2,-0.1 h 0.2 l 0.1,0.1 0.2,0.1 0.1,0.1 0.2,0.2 0.1,0.1 0.2,0.3 0.1,0.2 0.2,0.3 0.2,0.3 0.1,0.3 0.2,0.4 0.1,0.4 0.2,0.4 0.1,0.5 0.2,0.6 0.2,0.6 0.1,0.6 0.2,0.7 0.1,0.8 0.2,0.8 0.1,0.9 0.2,0.9 0.1,1 0.2,1 0.2,1.1 0.1,1.1 0.2,1.2 0.1,1.2 0.2,1.2 0.1,1.3 0.2,1.2 0.2,1.3 0.1,1.2 0.2,1.3 0.1,1.2 0.2,1.2 0.1,1.2 0.2,1.2 0.1,1.1 0.2,1.1 0.2,1.1 0.1,1 0.2,0.9 0.1,0.9 0.2,0.9 0.1,0.8 0.2,0.8 0.2,0.7 0.1,0.6 0.2,0.7 0.1,0.5 0.2,0.5 0.1,0.5 0.2,0.4 0.1,0.3 0.2,0.3 0.2,0.3 0.1,0.2 0.2,0.2 0.1,0.1 0.2,0.1 0.1,0.1 h 0.2 0.2 0.1 l 0.2,-0.1 0.1,-0.1 0.2,-0.1 0.1,-0.1 0.2,-0.1 0.1,-0.1 0.2,-0.2 0.2,-0.1 0.1,-0.1 0.2,-0.1 0.1,-0.1 0.2,-0.1 0.1,-0.1 0.2,-0.1 h 0.2 0.1 0.2 0.1 0.2 l 0.1,0.1 0.2,0.1 0.1,0.1 0.2,0.1 0.2,0.1 0.1,0.2 0.2,0.2 0.1,0.2 0.2,0.1 0.1,0.2 0.2,0.2 0.2,0.2 0.1,0.2 0.2,0.2 0.1,0.2 0.2,0.2 0.1,0.1 0.2,0.2 0.1,0.2 0.2,0.1 0.2,0.2 0.1,0.1 0.2,0.2 0.1,0.1 0.2,0.1 0.1,0.2 0.2,0.1 0.2,0.1 0.1,0.2 0.2,0.1 0.1,0.1 0.2,0.2 0.1,0.1 0.2,0.2 0.1,0.1 0.2,0.2 0.2,0.1 0.1,0.2 0.2,0.2 0.1,0.1 0.2,0.2 0.1,0.1 0.2,0.2 0.2,0.1 0.1,0.1 0.2,0.1 0.1,0.1 0.2,0.1 0.1,0.1 h 0.2 0.1 0.2 l 0.2,-0.1 h 0.1 l 0.2,-0.1 0.1,-0.2 0.2,-0.1 0.1,-0.2 0.2,-0.2 0.2,-0.3 0.1,-0.2 0.2,-0.3 0.1,-0.3 0.2,-0.4 0.1,-0.3 0.2,-0.4 0.1,-0.4 0.2,-0.3 0.2,-0.4 0.1,-0.4 0.2,-0.4 0.1,-0.4 0.2,-0.3 0.1,-0.4 0.2,-0.3 0.2,-0.4 0.1,-0.3 0.2,-0.3 0.1,-0.2 0.2,-0.3 0.1,-0.2 0.2,-0.2 0.1,-0.2 0.2,-0.1 0.2,-0.2 0.1,-0.1 h 0.2 l 0.1,-0.1 h 0.2 0.1 0.2 0.2 0.1 l 0.2,0.1 0.1,0.1 0.2,0.1 0.1,0.1 0.2,0.1 0.1,0.1 0.2,0.1 0.2,0.2 0.1,0.1 0.2,0.2 0.1,0.1 0.2,0.2 0.1,0.1 0.2,0.2 0.2,0.1 0.1,0.2 0.2,0.1 0.1,0.2 0.2,0.1 0.1,0.1 0.2,0.2 0.1,0.1 0.2,0.1 0.2,0.2 0.1,0.1 0.2,0.1 0.1,0.1 0.2,0.1 0.1,0.1 0.2,0.1 0.2,0.1 h 0.1 l 0.2,0.1 0.1,0.1 h 0.2 0.1 l 0.2,0.1 h 0.1 0.2 l 0.2,0.1 h 0.1 0.2 0.1 0.2 l 0.1,-0.1 h 0.2 0.2 0.1 l 0.2,-0.1 h 0.1 l 0.2,-0.1 h 0.1 l 0.2,-0.1 0.1,-0.1 h 0.2 l 0.2,-0.1 0.1,-0.1 0.2,-0.1 h 0.1 l 0.2,-0.1 0.1,-0.1 0.2,-0.1 0.2,-0.1 0.1,-0.1 0.2,-0.1 0.1,-0.1 0.2,-0.1 0.1,-0.1 0.2,-0.1 0.1,-0.1 0.2,-0.2 0.2,-0.1 0.1,-0.1 0.2,-0.1 0.1,-0.2 0.2,-0.1 0.1,-0.1 0.2,-0.2 0.2,-0.1 0.1,-0.2 0.2,-0.1 0.1,-0.2 0.2,-0.1 0.1,-0.2 0.2,-0.2 0.1,-0.2 0.2,-0.2 0.2,-0.2 0.1,-0.2 0.2,-0.2 0.1,-0.3 0.2,-0.2 0.1,-0.3 0.2,-0.2 0.2,-0.3 0.1,-0.3 0.2,-0.3 0.1,-0.3 0.2,-0.3 0.1,-0.4 0.2,-0.4 0.1,-0.3 0.2,-0.4 0.2,-0.4 0.1,-0.4 0.2,-0.5 0.1,-0.4 0.2,-0.5 0.1,-0.5 0.2,-0.5 0.2,-0.5 0.1,-0.6 0.2,-0.5 0.1,-0.6 0.2,-0.6 0.1,-0.6 0.2,-0.6 0.1,-0.7 0.2,-0.7 0.2,-0.7 0.1,-0.7 0.2,-0.7 0.1,-0.7 0.2,-0.8 0.1,-0.8 0.2,-0.7 0.2,-0.8 0.1,-0.9 0.2,-0.8 0.1,-0.8 0.2,-0.9 0.1,-0.8 0.2,-0.9 0.1,-0.9 0.2,-0.8 0.2,-0.9 0.1,-0.8 0.2,-0.9 0.1,-0.9 0.2,-0.8 0.1,-0.8 0.2,-0.8 0.2,-0.9 0.1,-0.7 0.2,-0.8 0.1,-0.7 0.2,-0.8 0.1,-0.7 0.2,-0.6 0.1,-0.7 0.2,-0.6 0.2,-0.6 0.1,-0.5 0.2,-0.5 0.1,-0.5 0.2,-0.5 0.1,-0.4 0.2,-0.4 0.2,-0.4 0.1,-0.3 0.2,-0.3 0.1,-0.2 0.2,-0.3 0.1,-0.2 0.2,-0.2 0.1,-0.1 0.2,-0.2 0.2,-0.1 0.1,-0.2 0.2,-0.1 0.1,-0.1 0.2,-0.1 0.1,-0.1 0.2,-0.1 0.2,-0.1 0.1,-0.1 0.2,-0.2 0.1,-0.1 0.2,-0.2 0.1,-0.2 0.2,-0.3 0.1,-0.2 0.2,-0.4 0.2,-0.3 0.1,-0.4 0.2,-0.5 0.1,-0.4 0.2,-0.6 0.1,-0.6 0.2,-0.6 0.2,-0.7 0.1,-0.8 0.2,-0.9 0.1,-0.9 0.2,-0.9 0.1,-1 0.2,-1.1 0.1,-1.2 0.2,-1.2 0.2,-1.3 0.1,-1.4 0.2,-1.4 0.1,-1.5 0.2,-1.5 0.1,-1.7 0.2,-1.6 0.2,-1.8 0.1,-1.8 0.2,-1.9 0.1,-1.9 0.2,-2 0.1,-2 0.2,-2.1 0.1,-2.1 0.2,-2.2 0.2,-2.3 0.1,-2.3 0.2,-2.3 0.1,-2.4 0.2,-2.4 0.1,-2.4 0.2,-2.5 0.2,-2.5 0.1,-2.6 0.2,-2.6 0.1,-2.6 0.2,-2.6 0.1,-2.6 0.2,-2.7 0.1,-2.6 0.2,-2.7 0.2,-2.7 0.1,-2.7 0.2,-2.7 0.1,-2.6 0.2,-2.7 0.1,-2.7 0.2,-2.6 0.2,-2.6 0.1,-2.7 0.2,-2.6 0.1,-2.5 0.2,-2.5 0.1,-2.6 0.2,-2.4 0.1,-2.5 0.2,-2.4 0.2,-2.3 0.1,-2.3 0.2,-2.3 0.1,-2.2 0.2,-2.2 0.1,-2.1 0.2,-2.1 0.2,-2 0.1,-1.9 0.2,-1.9 0.1,-1.9 0.2,-1.8 0.1,-1.7 0.2,-1.7 0.1,-1.7 0.2,-1.5 0.2,-1.6 0.1,-1.5 0.2,-1.4 0.1,-1.4 0.2,-1.3 0.1,-1.3 0.2,-1.2 0.2,-1.2 0.1,-1.2 0.2,-1.1 0.1,-1.1 0.2,-1 0.1,-1 0.2,-1 0.1,-1 0.2,-0.9 0.2,-0.9 0.1,-0.9 0.2,-0.8 0.1,-0.8 0.2,-0.8 0.1,-0.8 0.2,-0.8 0.2,-0.8 0.1,-0.7 0.2,-0.8 0.1,-0.7 0.2,-0.7 0.1,-0.7 0.2,-0.7 0.1,-0.7 0.2,-0.7 0.2,-0.7 0.1,-0.6 0.2,-0.7 0.1,-0.6 0.2,-0.7 0.1,-0.6 0.2,-0.7 0.2,-0.6 0.1,-0.6 0.2,-0.6 0.1,-0.6 0.2,-0.6 0.1,-0.6 0.2,-0.5 0.1,-0.6 0.2,-0.5 0.2,-0.5 0.1,-0.5 0.2,-0.5 0.1,-0.5 0.2,-0.4 0.1,-0.5 0.2,-0.4 0.2,-0.4 0.1,-0.3 0.2,-0.4 0.1,-0.3 0.2,-0.3 0.1,-0.3 0.2,-0.3 0.1,-0.2 0.2,-0.2 0.2,-0.2 0.1,-0.2 0.2,-0.2 0.1,-0.1 0.2,-0.1 0.1,-0.1 0.2,-0.1 h 0.2 0.1 0.2 0.1 0.2 l 0.1,0.1 h 0.2 l 0.1,0.1 0.2,0.1 0.2,0.1 0.1,0.1 0.2,0.1 0.1,0.2 0.2,0.1 0.1,0.2 0.2,0.1 0.2,0.2 0.1,0.1 0.2,0.2 0.1,0.2 0.2,0.1 0.1,0.2 0.2,0.1 0.1,0.2 0.2,0.1 0.2,0.1 0.1,0.1 0.2,0.1 0.1,0.1 0.2,0.1 0.1,0.1 h 0.2 l 0.2,0.1 h 0.1 0.2 0.1 0.2 l 0.1,-0.1 0.2,-0.1 0.1,-0.1 0.2,-0.1 0.2,-0.1 0.1,-0.2 0.2,-0.2 0.1,-0.2 0.2,-0.3 0.1,-0.2 0.2,-0.3 0.2,-0.3 0.1,-0.4 0.2,-0.4 0.1,-0.4 0.2,-0.4 0.1,-0.4 0.2,-0.5 0.1,-0.5 0.2,-0.6 0.2,-0.5 0.1,-0.6 0.2,-0.6 0.1,-0.7 0.2,-0.7 0.1,-0.7 0.2,-0.7 0.2,-0.7 0.1,-0.8 0.2,-0.8 0.1,-0.9 0.2,-0.8 0.1,-0.9 0.2,-1 0.1,-0.9 0.2,-1 0.2,-0.9 0.1,-1.1 0.2,-1 0.1,-1 0.2,-1.1 0.1,-1.1 0.2,-1.1 0.2,-1.1 0.1,-1.2 0.2,-1.1 0.1,-1.2 0.2,-1.1 0.1,-1.2 0.2,-1.2 0.1,-1.1 0.2,-1.2 0.2,-1.2 0.1,-1.2 0.2,-1.1 0.1,-1.2 0.2,-1.1 0.1,-1.2 0.2,-1.1 0.2,-1.1 0.1,-1.1 0.2,-1 0.1,-1.1 0.2,-1 0.1,-1 0.2,-0.9 0.1,-0.9 0.2,-0.9 0.2,-0.9 0.1,-0.8 0.2,-0.8 0.1,-0.7 0.2,-0.7 0.1,-0.7 0.2,-0.6 0.2,-0.6 0.1,-0.5 0.2,-0.5 0.1,-0.5 0.2,-0.4 0.1,-0.4 0.2,-0.3 0.1,-0.3 0.2,-0.3 0.2,-0.2 0.1,-0.1 0.2,-0.2 0.1,-0.1 h 0.2 0.1 0.2 0.2 l 0.1,0.1 0.2,0.2 0.1,0.1 0.2,0.2 0.1,0.2 0.2,0.3 0.1,0.3 0.2,0.3 0.2,0.3 0.1,0.4 0.2,0.4 0.1,0.4 0.2,0.5 0.1,0.4 0.2,0.5 0.2,0.6 0.1,0.5 0.2,0.5 0.1,0.6 0.2,0.6 0.1,0.6 0.2,0.7 0.1,0.6 0.2,0.7 0.2,0.7 0.1,0.7 0.2,0.7 0.1,0.7 0.2,0.8 0.1,0.7 0.2,0.8 0.2,0.8 0.1,0.8 0.2,0.8 0.1,0.8 0.2,0.8 0.1,0.8 0.2,0.8 0.1,0.8 0.2,0.9 0.2,0.8 0.1,0.8 0.2,0.9 0.1,0.8 0.2,0.8 0.1,0.9 0.2,0.8 0.2,0.8 0.1,0.8 0.2,0.8 0.1,0.8 0.2,0.8 0.1,0.8 0.2,0.8 0.1,0.7 0.2,0.8 0.2,0.7 0.1,0.7 0.2,0.8 0.1,0.7 0.2,0.6 0.1,0.7 0.2,0.7 0.2,0.6 0.1,0.7 0.2,0.6 0.1,0.6 0.2,0.6 0.1,0.6 0.2,0.5 0.1,0.6 0.2,0.5 0.2,0.5 0.1,0.6 0.2,0.5 0.1,0.5 0.2,0.4 0.1,0.5 0.2,0.5 0.2,0.5 0.1,0.4 0.2,0.5 0.1,0.4 0.2,0.5 0.1,0.4 0.2,0.4 0.1,0.5 0.2,0.4 0.2,0.4 0.1,0.5 0.2,0.4 0.1,0.4 0.2,0.5 0.1,0.4 0.2,0.5 0.2,0.4 0.1,0.5 0.2,0.5 0.1,0.4 0.2,0.5 0.1,0.5 0.2,0.5 0.1,0.5 0.2,0.6 0.2,0.5 0.1,0.6 0.2,0.5 0.1,0.6 0.2,0.6 0.1,0.6 0.2,0.6 0.2,0.6 0.1,0.7 0.2,0.7 0.1,0.6 0.2,0.7 0.1,0.7 0.2,0.8 0.1,0.7 0.2,0.8 0.2,0.7 0.1,0.8 0.2,0.8 0.1,0.8 0.2,0.9 0.1,0.8 0.2,0.9 0.2,0.9 0.1,0.9 0.2,0.9 0.1,1 0.2,0.9 0.1,1 0.2,1 0.1,1 0.2,1 0.2,1 0.1,1 0.2,1.1 0.1,1 0.2,1.1 0.1,1.1 0.2,1.1 0.2,1.1 0.1,1.1 0.2,1.1 0.1,1.1 0.2,1.2 0.1,1.1 0.2,1.1 0.1,1.2 0.2,1.1 0.2,1.2 0.1,1.1 0.2,1.2 0.1,1.1 0.2,1.2 0.1,1.1 0.2,1.1 0.2,1.1 0.1,1.2 0.2,1.1 0.1,1.1 0.2,1.1 0.1,1 0.2,1.1 0.1,1.1 0.2,1 0.2,1 0.1,1 0.2,1 0.1,1 0.2,0.9 0.1,1 0.2,0.9 0.2,0.9 0.1,0.8 0.2,0.9 0.1,0.8 0.2,0.8 0.1,0.8 0.2,0.7 0.1,0.8 0.2,0.7 0.2,0.6 0.1,0.7 0.2,0.6 0.1,0.6 0.2,0.6 0.1,0.6 0.2,0.5 0.2,0.5 0.1,0.5 0.2,0.5 0.1,0.4 0.2,0.5 0.1,0.4 0.2,0.4 0.1,0.3 0.2,0.4 0.2,0.3 0.1,0.3 0.2,0.3 0.1,0.3 0.2,0.3 0.1,0.3 0.2,0.2 0.2,0.3 0.1,0.2 0.2,0.2 0.1,0.2 0.2,0.3 0.1,0.2 0.2,0.2 0.1,0.2 0.2,0.2 0.2,0.1 0.1,0.2 0.2,0.2 0.1,0.2 0.2,0.2 0.1,0.2 0.2,0.2 0.2,0.2 0.1,0.3 0.2,0.2 0.1,0.2 0.2,0.2 0.1,0.3 0.2,0.2 0.1,0.3 0.2,0.2 0.2,0.3 0.1,0.3 0.2,0.3 0.1,0.3 0.2,0.3 0.1,0.3 0.2,0.3 0.2,0.3 0.1,0.4 0.2,0.3 0.1,0.4 0.2,0.4 0.1,0.3 0.2,0.4 0.1,0.4 0.2,0.4 0.2,0.4 0.1,0.4 0.2,0.4 0.1,0.4 0.2,0.4 0.1,0.5 0.2,0.4 0.2,0.4 0.1,0.5 0.2,0.4 0.1,0.4 0.2,0.5 0.1,0.4 0.2,0.4 0.1,0.5 0.2,0.4 0.2,0.4 0.1,0.4 0.2,0.5 0.1,0.4 0.2,0.4 0.1,0.4 0.2,0.4 0.2,0.4 0.1,0.4 0.2,0.3 0.1,0.4 0.2,0.4 0.1,0.3 0.2,0.4 0.1,0.3 0.2,0.4 0.2,0.3 0.1,0.3 0.2,0.3 0.1,0.3 0.2,0.3 0.1,0.2 0.2,0.3 0.2,0.3 0.1,0.2 0.2,0.3 0.1,0.2 0.2,0.2 0.1,0.3 0.2,0.2 0.1,0.2 0.2,0.2 0.2,0.2 0.1,0.2 0.2,0.2 0.1,0.1 0.2,0.2 0.1,0.2 0.2,0.1 0.2,0.2 0.1,0.2 0.2,0.1 0.1,0.2 0.2,0.2 0.1,0.1 0.2,0.2 0.1,0.2 0.2,0.1 0.2,0.2 0.1,0.1 0.2,0.2 0.1,0.2 0.2,0.1 0.1,0.2 0.2,0.2 0.2,0.2 0.1,0.1 0.2,0.2 0.1,0.2 0.2,0.2 0.1,0.2 0.2,0.2 0.1,0.1 0.2,0.2 0.2,0.2 0.1,0.2 0.2,0.2 0.1,0.2 0.2,0.1 0.1,0.2 0.2,0.2 0.2,0.1 0.1,0.2 0.2,0.1 0.1,0.2 0.2,0.1 0.1,0.2 0.2,0.1 0.1,0.1 0.2,0.1 0.2,0.1 h 0.1 l 0.2,0.1 h 0.1 l 0.2,0.1 h 0.1 0.2 0.2 l 0.1,-0.1 h 0.2 l 0.1,-0.1 0.2,-0.1 0.1,-0.1 0.2,-0.1 0.1,-0.1 0.2,-0.2 0.2,-0.2 0.1,-0.1 0.2,-0.3 0.1,-0.2 0.2,-0.2 0.1,-0.3 0.2,-0.2 0.2,-0.3 0.1,-0.3 0.2,-0.3 0.1,-0.3 0.2,-0.4 0.1,-0.3 0.2,-0.3 0.1,-0.4 0.2,-0.3 0.2,-0.3 0.1,-0.4 0.2,-0.3 0.1,-0.3 0.2,-0.4 0.1,-0.3 0.2,-0.3 0.2,-0.2 0.1,-0.3 0.2,-0.3 0.1,-0.2 0.2,-0.2 0.1,-0.2 0.2,-0.2 0.1,-0.1 0.2,-0.1 0.2,-0.1 h 0.1 0.2 0.1 l 0.2,0.1 0.1,0.1 0.2,0.2 0.1,0.2 0.2,0.2 0.2,0.3 0.1,0.3 0.2,0.4 0.1,0.4 0.2,0.5 0.1,0.5 0.2,0.6 0.2,0.6 0.1,0.6 0.2,0.7 0.1,0.8 0.2,0.7 0.1,0.9 0.2,0.8 0.1,0.9 0.2,1 0.2,1 0.1,1 0.2,1.1 0.1,1.1 0.2,1.1 0.1,1.2 0.2,1.2 0.2,1.2 0.1,1.2 0.2,1.3 0.1,1.3 0.2,1.3 0.1,1.3 0.2,1.3 0.1,1.4 0.2,1.3 0.2,1.4 0.1,1.4 0.2,1.3 0.1,1.4 0.2,1.4 0.1,1.4 0.2,1.3 0.2,1.4 0.1,1.4 0.2,1.3 0.1,1.4 0.2,1.3 0.1,1.3 0.2,1.3 0.1,1.3 0.2,1.3 0.2,1.2 0.1,1.3 0.2,1.2 0.1,1.2 0.2,1.2 0.1,1.2 0.2,1.1 0.2,1.2 0.1,1.1 0.2,1.1 0.1,1 0.2,1.1 0.1,1 0.2,1 0.1,1 0.2,1 0.2,1 0.1,0.9 0.2,0.9 0.1,0.9 0.2,0.9 0.1,0.9 0.2,0.9 0.2,0.8 0.1,0.8 0.2,0.8 0.1,0.8 0.2,0.8 0.1,0.8 0.2,0.8 0.1,0.7 0.2,0.8 0.2,0.7 0.1,0.7 0.2,0.7 0.1,0.7 0.2,0.7 0.1,0.7 0.2,0.7 0.2,0.6 0.1,0.7 0.2,0.6 0.1,0.7 0.2,0.6 0.1,0.6 0.2,0.6 0.1,0.6 0.2,0.6 0.2,0.6 0.1,0.6 0.2,0.5 0.1,0.6 0.2,0.5 0.1,0.6 0.2,0.5 0.2,0.5 0.1,0.5 0.2,0.5 0.1,0.5 0.2,0.5 0.1,0.4 0.2,0.5 0.1,0.4 0.2,0.5 0.2,0.4 0.1,0.4 0.2,0.4 0.1,0.4 0.2,0.4 0.1,0.3 0.2,0.4 0.2,0.3 0.1,0.3 0.2,0.3 0.1,0.3 0.2,0.3 0.1,0.3 0.2,0.2 0.1,0.3 0.2,0.2 0.2,0.3 0.1,0.2 0.2,0.2 0.1,0.2 0.2,0.1 0.1,0.2 0.2,0.2 0.2,0.1 0.1,0.1 0.2,0.2 0.1,0.1 0.2,0.1 0.1,0.1 h 0.2 l 0.1,0.1 0.2,0.1 h 0.2 l 0.1,0.1 h 0.2 l 0.1,0.1 h 0.2 0.1 l 0.2,0.1 h 0.2 0.1 0.2 0.1 0.2 0.1 0.2 0.1 l 0.2,-0.1 h 0.2 0.1 0.2 0.1 0.2 0.1 l 0.2,-0.1 h 0.2 0.1 0.2 0.1 0.2 0.1 0.2 0.1 0.2 0.2 0.1 l 0.2,0.1 h 0.1 0.2 0.1 l 0.2,0.1 h 0.2 l 0.1,0.1 h 0.2 l 0.1,0.1 h 0.2 l 0.1,0.1 h 0.2 l 0.1,0.1 0.2,0.1 0.2,0.1 0.1,0.1 h 0.2 l 0.1,0.1 0.2,0.1 0.1,0.1 0.2,0.1 0.2,0.1 0.1,0.2 0.2,0.1 0.1,0.1 0.2,0.1 0.1,0.1 0.2,0.1 0.1,0.1 0.2,0.2 0.2,0.1 0.1,0.1 0.2,0.1 0.1,0.2 0.2,0.1 0.1,0.1 0.2,0.1 0.2,0.2 0.1,0.1 0.2,0.1 0.1,0.1 0.2,0.1 0.1,0.1 0.2,0.2 0.1,0.1 0.2,0.1 0.2,0.1 0.1,0.1 0.2,0.1 0.1,0.1 0.2,0.1 h 0.1 l 0.2,0.1 0.2,0.1 0.1,0.1 0.2,0.1 h 0.1 l 0.2,0.1 0.1,0.1 h 0.2 l 0.1,0.1 h 0.2 l 0.2,0.1 h 0.1 l 0.2,0.1 h 0.1 l 0.2,0.1 h 0.1 0.2 l 0.2,0.1 h 0.1 0.2 l 0.1,0.1 h 0.2 0.1 0.2 0.1 0.2 l 0.2,0.1 h 0.1 0.2 0.1 0.2 0.1 0.2 0.2 l 0.1,0.1 h 0.2 0.1 0.2 0.1 0.2 0.1 0.2 l 0.2,0.1 h 0.1 0.2 0.1 l 0.2,0.1 h 0.1 0.2 0.2 l 0.1,0.1 h 0.2 0.1 l 0.2,0.1 h 0.1 0.2 l 0.1,0.1 h 0.2 l 0.2,0.1 h 0.1 l 0.2,0.1 h 0.1 l 0.2,0.1 h 0.1 l 0.2,0.1 0.2,0.1 h 0.1 l 0.2,0.1 0.1,0.1 h 0.2 l 0.1,0.1 0.2,0.1 h 0.1 l 0.2,0.1 0.2,0.1 0.1,0.1 h 0.2 l 0.1,0.1 0.2,0.1 0.1,0.1 0.2,0.1 0.2,0.1 0.1,0.1 h 0.2 l 0.1,0.1 0.2,0.1 0.1,0.1 0.2,0.1 0.1,0.1 0.2,0.1 0.2,0.1 0.1,0.1 0.2,0.1 0.1,0.1 0.2,0.1 0.1,0.1 0.2,0.1 0.2,0.1 0.1,0.1 0.2,0.1 0.1,0.1 0.2,0.1 0.1,0.1 0.2,0.1 0.1,0.2 0.2,0.1 0.2,0.1 0.1,0.1 0.2,0.1 0.1,0.1 0.2,0.1 0.1,0.1 0.2,0.2 0.2,0.1 0.1,0.1 0.2,0.1 0.1,0.1 0.2,0.1 0.1,0.1 0.2,0.2 0.1,0.1 0.2,0.1 0.2,0.1 0.1,0.1 0.2,0.1 0.1,0.1 0.2,0.1 0.1,0.1 0.2,0.1 0.2,0.1 0.1,0.1 0.2,0.1 0.1,0.1 0.2,0.1 0.1,0.1 0.2,0.1 0.1,0.1 0.2,0.1 0.2,0.1 0.1,0.1 h 0.2 l 0.1,0.1 0.2,0.1 h 0.1 l 0.2,0.1 0.2,0.1 h 0.1 l 0.2,0.1 h 0.1 l 0.2,0.1 h 0.1 0.2 l 0.1,0.1 h 0.2 0.2 l 0.1,0.1 h 0.2 0.1 0.2 0.1 0.2 0.2 0.1 0.2 0.1 0.2 l 0.1,-0.1 h 0.2 0.1 0.2 l 0.2,-0.1 h 0.1 0.2 l 0.1,-0.1 h 0.2 l 0.1,-0.1 h 0.2 l 0.2,-0.1 h 0.1 l 0.2,-0.1 h 0.1 l 0.2,-0.1 h 0.1 l 0.2,-0.1 h 0.1 l 0.2,-0.1 h 0.2 l 0.1,-0.1 h 0.2 l 0.1,-0.1 h 0.2 l 0.1,-0.1 0.2,-0.1 h 0.2 l 0.1,-0.1 h 0.2 l 0.1,-0.1 h 0.2 l 0.1,-0.1 h 0.2 l 0.1,-0.1 h 0.2 l 0.2,-0.1 h 0.1 l 0.2,-0.1 h 0.1 0.2 l 0.1,-0.1 h 0.2 l 0.2,-0.1 h 0.1 0.2 l 0.1,-0.1 h 0.2 0.1 l 0.2,-0.1 h 0.1 0.2 0.2 l 0.1,-0.1 h 0.2 0.1 0.2 l 0.1,-0.1 h 0.2 0.2 0.1 0.2 l 0.1,-0.1 h 0.2 0.1 0.2 0.1 0.2 l 0.2,-0.1 h 0.1 0.2 0.1 0.2 l 0.1,-0.1 h 0.2 0.2 0.1 0.2 0.1 l 0.2,-0.1 h 0.1 0.2 0.1 l 0.2,-0.1 h 0.2 0.1 0.2 l 0.1,-0.1 h 0.2 0.1 0.2 l 0.2,-0.1 h 0.1 0.2 l 0.1,-0.1 h 0.2 0.1 l 0.2,-0.1 h 0.1 0.2 l 0.2,-0.1 h 0.1 0.2 l 0.1,-0.1 h 0.2 0.1 l 0.2,-0.1 h 0.2 0.1 l 0.2,-0.1 h 0.1 l 0.2,-0.1 h 0.1 0.2 l 0.1,-0.1 h 0.2 l 0.2,-0.1 h 0.1 0.2 l 0.1,-0.1 h 0.2 0.1 l 0.2,-0.1 h 0.2 0.1 l 0.2,-0.1 h 0.1 0.2 l 0.1,-0.1 h 0.2 0.1 l 0.2,-0.1 h 0.2 0.1 l 0.2,-0.1 h 0.1 0.2 l 0.1,-0.1 h 0.2 0.2 l 0.1,-0.1 h 0.2 0.1 0.2 l 0.1,-0.1 h 0.2 l 0.1,-0.1 h 0.2 0.2 l 0.1,-0.1 h 0.2 0.1 l 0.2,-0.1 h 0.1 l 0.2,-0.1 h 0.2 l 0.1,-0.1 0.2,-0.1 h 0.1 l 0.2,-0.1 h 0.1 l 0.2,-0.1 0.1,-0.1 0.2,-0.1 0.2,-0.1 h 0.1 l 0.2,-0.1 0.1,-0.1 0.2,-0.1 0.1,-0.1 0.2,-0.2 0.2,-0.1 0.1,-0.1 0.2,-0.1 0.1,-0.2 0.2,-0.1 0.1,-0.2 0.2,-0.1 0.1,-0.2 0.2,-0.1 0.2,-0.2 0.1,-0.2 0.2,-0.2 0.1,-0.1 0.2,-0.2 0.1,-0.2 0.2,-0.2 0.2,-0.2 0.1,-0.2 0.2,-0.3 0.1,-0.2 0.2,-0.2 0.1,-0.2 0.2,-0.3 0.1,-0.2 0.2,-0.2 0.2,-0.3 0.1,-0.2 0.2,-0.2 0.1,-0.3 0.2,-0.2 0.1,-0.3 0.2,-0.2 0.2,-0.2 0.1,-0.3 0.2,-0.2 0.1,-0.3 0.2,-0.2 0.1,-0.2 0.2,-0.2 0.1,-0.2 0.2,-0.3 0.2,-0.2 0.1,-0.2 0.2,-0.1 0.1,-0.2 0.2,-0.2 0.1,-0.2 0.2,-0.1 0.2,-0.2 0.1,-0.1 0.2,-0.2 0.1,-0.1 0.2,-0.1 0.1,-0.1 0.2,-0.1 0.1,-0.1 h 0.2 l 0.2,-0.1 h 0.1 0.2 l 0.1,-0.1 h 0.2 l 0.1,0.1 h 0.2 0.2 l 0.1,0.1 h 0.2 l 0.1,0.1 0.2,0.1 0.1,0.1 0.2,0.1 0.1,0.1 0.2,0.1 0.2,0.2 0.1,0.1 0.2,0.2 0.1,0.2 0.2,0.2 0.1,0.2 0.2,0.2 0.2,0.2 0.1,0.3 0.2,0.2 0.1,0.2 0.2,0.3 0.1,0.3 0.2,0.2 0.1,0.3 0.2,0.3 0.2,0.3 0.1,0.3 0.2,0.3 0.1,0.3 0.2,0.4 0.1,0.3 0.2,0.3 0.2,0.3 0.1,0.4 0.2,0.3 0.1,0.4 0.2,0.3 0.1,0.4 0.2,0.3 0.1,0.4 0.2,0.3 0.2,0.4 0.1,0.3 0.2,0.4 0.1,0.4 0.2,0.3 0.1,0.4 0.2,0.4 0.2,0.3 0.1,0.4 0.2,0.3 0.1,0.4 0.2,0.4 0.1,0.3 0.2,0.4 0.1,0.3 0.2,0.4 0.2,0.3 0.1,0.4 0.2,0.3 0.1,0.4 0.2,0.3 0.1,0.3 0.2,0.4 0.2,0.3 0.1,0.3 0.2,0.3 0.1,0.3 0.2,0.4 0.1,0.3 0.2,0.3 0.1,0.3 0.2,0.3 0.2,0.3 0.1,0.2 0.2,0.3 0.1,0.3 0.2,0.3 0.1,0.2 0.2,0.3 0.2,0.2 0.1,0.3 0.2,0.2 0.1,0.2 0.2,0.2 0.1,0.3 0.2,0.2 0.1,0.2 0.2,0.1 0.2,0.2 0.1,0.2 0.2,0.2 0.1,0.1 0.2,0.2 0.1,0.1 0.2,0.2 0.2,0.1 0.1,0.1 0.2,0.2 0.1,0.1 0.2,0.1 0.1,0.1 h 0.2 l 0.1,0.1 0.2,0.1 h 0.2 l 0.1,0.1 h 0.2 l 0.1,0.1 h 0.2 0.1 0.2 l 0.2,0.1 h 0.1 0.2 l 0.1,-0.1 h 0.2 0.1 0.2 l 0.1,-0.1 h 0.2 0.2 l 0.1,-0.1 0.2,-0.1 h 0.1 l 0.2,-0.1 0.1,-0.1 h 0.2 l 0.2,-0.1 0.1,-0.1 0.2,-0.1 0.1,-0.1 0.2,-0.1 0.1,-0.1 0.2,-0.1 0.1,-0.1 0.2,-0.1 0.2,-0.1 0.1,-0.1 0.2,-0.1 0.1,-0.1 0.2,-0.2 0.1,-0.1 0.2,-0.1 0.2,-0.1 0.1,-0.2 0.2,-0.1 0.1,-0.1 0.2,-0.2 0.1,-0.1 0.2,-0.2 0.1,-0.1 0.2,-0.1 0.2,-0.2 0.1,-0.1 0.2,-0.2 0.1,-0.1 0.2,-0.2 0.1,-0.1 0.2,-0.2 0.2,-0.1 0.1,-0.2 0.2,-0.2 0.1,-0.1 0.2,-0.2 0.1,-0.1 0.2,-0.2 0.1,-0.2 0.2,-0.1 0.2,-0.2 0.1,-0.2 0.2,-0.2 0.1,-0.1 0.2,-0.2 0.1,-0.2 0.2,-0.2 0.2,-0.2 0.1,-0.2 0.2,-0.2 0.1,-0.1 0.2,-0.2 0.1,-0.2 0.2,-0.2 0.1,-0.2 0.2,-0.2 0.2,-0.2 0.1,-0.2 0.2,-0.3 0.1,-0.2 0.2,-0.2 0.1,-0.2 0.2,-0.2 0.2,-0.2 0.1,-0.2 0.2,-0.2 0.1,-0.3 0.2,-0.2 0.1,-0.2 0.2,-0.2 0.1,-0.2 0.2,-0.3 0.2,-0.2 0.1,-0.2 0.2,-0.2 0.1,-0.3 0.2,-0.2 0.1,-0.2 0.2,-0.2 0.2,-0.3 0.1,-0.2 0.2,-0.2 0.1,-0.3 0.2,-0.2 0.1,-0.2 0.2,-0.2 0.1,-0.3 0.2,-0.2 0.2,-0.2 0.1,-0.2 0.2,-0.3 0.1,-0.2 0.2,-0.2 0.1,-0.2 0.2,-0.3 0.2,-0.2 0.1,-0.2 0.2,-0.2 0.1,-0.3 0.2,-0.2 0.1,-0.2 0.2,-0.2 0.1,-0.3 0.2,-0.2 0.2,-0.2 0.1,-0.2 0.2,-0.3 0.1,-0.2 0.2,-0.2 0.1,-0.2 0.2,-0.3 0.2,-0.2 0.1,-0.2 0.2,-0.3 0.1,-0.2 0.2,-0.3 0.1,-0.2 0.2,-0.2 0.1,-0.3 0.2,-0.2 0.2,-0.3 0.1,-0.3 0.2,-0.2 0.1,-0.3 0.2,-0.2 0.1,-0.3 0.2,-0.3 0.2,-0.3 0.1,-0.2 0.2,-0.3 0.1,-0.3 0.2,-0.3 0.1,-0.3 0.2,-0.3 0.1,-0.3 0.2,-0.4 0.2,-0.3 0.1,-0.3 0.2,-0.4 0.1,-0.3 0.2,-0.3 0.1,-0.4 0.2,-0.4 0.2,-0.3 0.1,-0.4 0.2,-0.4 0.1,-0.4 0.2,-0.4 0.1,-0.4 0.2,-0.4 0.1,-0.4 0.2,-0.4 0.2,-0.4 0.1,-0.5 0.2,-0.4 0.1,-0.5 0.2,-0.5 0.1,-0.4 0.2,-0.5 0.2,-0.5 0.1,-0.5 0.2,-0.5 0.1,-0.5 0.2,-0.5 0.1,-0.6 0.2,-0.5 0.1,-0.6 0.2,-0.5 0.2,-0.6 0.1,-0.6 0.2,-0.6 0.1,-0.6 0.2,-0.6 0.1,-0.6 0.2,-0.7 0.2,-0.6 0.1,-0.7 0.2,-0.7 0.1,-0.6 0.2,-0.7 0.1,-0.7 0.2,-0.8 0.1,-0.7 0.2,-0.7 0.2,-0.8 0.1,-0.7 0.2,-0.8 0.1,-0.8 0.2,-0.8 0.1,-0.8 0.2,-0.8 0.2,-0.8 0.1,-0.9 0.2,-0.8 0.1,-0.9 0.2,-0.9 0.1,-0.9 0.2,-0.9 0.1,-0.9 0.2,-0.9 0.2,-0.9 0.1,-0.9 0.2,-1 0.1,-0.9 0.2,-1 0.1,-0.9 0.2,-1 0.2,-1 0.1,-1 0.2,-1 0.1,-1 0.2,-1 0.1,-1 0.2,-1 0.1,-1 0.2,-1 0.2,-1 0.1,-1.1 0.2,-1 0.1,-1 0.2,-1.1 0.1,-1 0.2,-1 0.2,-1.1 0.1,-1 0.2,-1.1 0.1,-1 0.2,-1 0.1,-1.1 0.2,-1 0.1,-1.1 0.2,-1 0.2,-1 0.1,-1.1 0.2,-1 0.1,-1 0.2,-1.1 0.1,-1 0.2,-1 0.2,-1 0.1,-1 0.2,-1 0.1,-1.1 0.2,-1 0.1,-1 0.2,-1 0.1,-0.9 0.2,-1 0.2,-1 0.1,-1 0.2,-1 0.1,-0.9 0.2,-1 0.1,-0.9 0.2,-1 0.2,-0.9 0.1,-1 0.2,-0.9 0.1,-0.9 0.2,-0.9 0.1,-0.9 0.2,-0.9 0.1,-0.9 0.2,-0.9 0.2,-0.9 0.1,-0.9 0.2,-0.9 0.1,-0.8 0.2,-0.9 0.1,-0.8 0.2,-0.8 0.2,-0.8 0.1,-0.8 0.2,-0.8 0.1,-0.8 0.2,-0.8 0.1,-0.7 0.2,-0.8 0.1,-0.7 0.2,-0.7 0.2,-0.8 0.1,-0.6 0.2,-0.7 0.1,-0.7 0.2,-0.6 0.1,-0.7 0.2,-0.6 0.2,-0.6 0.1,-0.6 0.2,-0.5 0.1,-0.6 0.2,-0.5 0.1,-0.5 0.2,-0.5 0.1,-0.4 0.2,-0.5 0.2,-0.4 0.1,-0.4 0.2,-0.4 0.1,-0.3 0.2,-0.4 0.1,-0.3 0.2,-0.2 0.2,-0.3 0.1,-0.2 0.2,-0.2 0.1,-0.2 0.2,-0.1 0.1,-0.2 0.2,-0.1 h 0.1 l 0.2,-0.1 h 0.2 0.1 l 0.2,0.1 0.1,0.1 0.2,0.1 0.1,0.1 0.2,0.2 0.2,0.2 0.1,0.2 0.2,0.3 0.1,0.3 0.2,0.3 0.1,0.3 0.2,0.4 0.1,0.4 0.2,0.4 0.2,0.5 0.1,0.5 0.2,0.5 0.1,0.6 0.2,0.5 0.1,0.6 0.2,0.7 0.2,0.6 0.1,0.7 0.2,0.7 0.1,0.8 0.2,0.7 0.1,0.8 0.2,0.8 0.1,0.9 0.2,0.8 0.2,0.9 0.1,0.9 0.2,0.9 0.1,0.9 0.2,1 0.1,1 0.2,0.9 0.2,1.1 0.1,1 0.2,1 0.1,1 0.2,1.1 0.1,1.1 0.2,1 0.1,1.1 0.2,1.1 0.2,1.1 0.1,1.1 0.2,1.1 0.1,1.2 0.2,1.1 0.1,1.1 0.2,1.1 0.1,1.2 0.2,1.1 0.2,1.1 0.1,1.2 0.2,1.1 0.1,1.1 0.2,1.1 0.1,1.1 0.2,1.1 0.2,1.1 0.1,1.1 0.2,1.1 0.1,1.1 0.2,1.1 0.1,1.1 0.2,1 0.1,1.1 0.2,1 0.2,1 0.1,1 0.2,1 0.1,1 0.2,1 0.1,0.9 0.2,1 0.2,0.9 0.1,0.9 0.2,0.9 0.1,0.9 0.2,0.9 0.1,0.8 0.2,0.8 0.1,0.9 0.2,0.8 0.2,0.7 0.1,0.8 0.2,0.7 0.1,0.8 0.2,0.7 0.1,0.7 0.2,0.6 0.2,0.7 0.1,0.6 0.2,0.6 0.1,0.6 0.2,0.6 0.1,0.5 0.2,0.6 0.1,0.5 0.2,0.5 0.2,0.4 0.1,0.5 0.2,0.4 0.1,0.4 0.2,0.4 0.1,0.4 0.2,0.4 0.2,0.3 0.1,0.3 0.2,0.3 0.1,0.3 0.2,0.2 0.1,0.3 0.2,0.2 0.1,0.2 0.2,0.2 0.2,0.1 0.1,0.2 0.2,0.1 0.1,0.1 0.2,0.1 0.1,0.1 h 0.2 l 0.2,0.1 h 0.1 0.2 0.1 0.2 0.1 0.2 l 0.1,-0.1 0.2,-0.1 h 0.2 l 0.1,-0.1 0.2,-0.1 0.1,-0.1 0.2,-0.2 0.1,-0.1 0.2,-0.1 0.2,-0.2 0.1,-0.1 0.2,-0.2 0.1,-0.2 0.2,-0.1 0.1,-0.2 0.2,-0.2 0.1,-0.2 0.2,-0.2 0.2,-0.2 0.1,-0.2 0.2,-0.2 0.1,-0.2 0.2,-0.2 0.1,-0.2 0.2,-0.3 0.2,-0.2 0.1,-0.2 0.2,-0.2 0.1,-0.2 0.2,-0.2 0.1,-0.2 0.2,-0.3 0.1,-0.2 0.2,-0.2 0.2,-0.2 0.1,-0.2 0.2,-0.2 0.1,-0.2 0.2,-0.2 0.1,-0.2 0.2,-0.2 0.2,-0.2 0.1,-0.2 0.2,-0.1 0.1,-0.2 0.2,-0.2 0.1,-0.2 0.2,-0.1 0.1,-0.2 0.2,-0.2 0.2,-0.1 0.1,-0.2 0.2,-0.2 0.1,-0.1 0.2,-0.2 0.1,-0.1 0.2,-0.1 0.2,-0.2 0.1,-0.1 0.2,-0.1 0.1,-0.2 0.2,-0.1 0.1,-0.1 0.2,-0.2 0.1,-0.1 0.2,-0.1 0.2,-0.1 0.1,-0.1 0.2,-0.1 0.1,-0.1 0.2,-0.1 0.1,-0.1 0.2,-0.1 0.2,-0.1 0.1,-0.1 0.2,-0.1 0.1,-0.1 0.2,-0.1 0.1,-0.1 h 0.2 l 0.1,-0.1 0.2,-0.1 0.2,-0.1 h 0.1 l 0.2,-0.1 h 0.1 l 0.2,-0.1 h 0.1 l 0.2,-0.1 h 0.2 l 0.1,-0.1 h 0.2 0.1 l 0.2,-0.1 h 0.1 0.2 0.1 0.2 0.2 0.1 0.2 0.1 0.2 0.1 l 0.2,0.1 h 0.2 l 0.1,0.1 h 0.2 l 0.1,0.1 h 0.2 l 0.1,0.1 h 0.2 l 0.1,0.1 0.2,0.1 0.2,0.1 0.1,0.1 0.2,0.1 h 0.1 l 0.2,0.1 0.1,0.2 0.2,0.1 0.2,0.1 0.1,0.1 0.2,0.1 0.1,0.1 0.2,0.2 0.1,0.1 0.2,0.1 0.1,0.2 0.2,0.1 0.2,0.2 0.1,0.1 0.2,0.1 0.1,0.2 0.2,0.1 0.1,0.2 0.2,0.1 0.2,0.2 0.1,0.1 0.2,0.2 0.1,0.1 0.2,0.2 0.1,0.1 0.2,0.1 0.1,0.2 0.2,0.1 0.2,0.2 0.1,0.1 0.2,0.1 0.1,0.2 0.2,0.1 0.1,0.1 0.2,0.2 0.2,0.1 0.1,0.1 0.2,0.1 0.1,0.1 0.2,0.1 0.1,0.1 0.2,0.1 0.1,0.1 0.2,0.1 0.2,0.1 0.1,0.1 0.2,0.1 0.1,0.1 0.2,0.1 0.1,0.1 h 0.2 l 0.2,0.1 0.1,0.1 h 0.2 l 0.1,0.1 h 0.2 l 0.1,0.1 0.2,0.1 h 0.1 l 0.2,0.1 h 0.2 0.1 l 0.2,0.1 h 0.1 l 0.2,0.1 h 0.1 0.2 0.2 l 0.1,0.1 h 0.2 0.1 l 0.2,0.1 h 0.1 0.2 0.1 0.2 l 0.2,0.1 h 0.1 0.2 0.1 0.2 0.1 0.2 l 0.2,0.1 h 0.1 0.2 0.1 0.2 0.1 0.2 0.1 l 0.2,0.1 h 0.2 0.1 0.2 0.1 0.2 0.1 0.2 l 0.2,0.1 h 0.1 0.2 0.1 0.2 0.1 0.2 l 0.1,0.1 h 0.2 0.2 0.1 0.2 l 0.1,0.1 h 0.2 0.1 0.2 l 0.2,0.1 h 0.1 0.2 l 0.1,0.1 h 0.2 0.1 l 0.2,0.1 h 0.1 l 0.2,0.1 h 0.2 l 0.1,0.1 h 0.2 l 0.1,0.1 h 0.2 l 0.1,0.1 0.2,0.1 h 0.2 l 0.1,0.1 0.2,0.1 0.1,0.1 h 0.2 l 0.1,0.1 0.2,0.1 0.1,0.1 0.2,0.1 0.2,0.2 0.1,0.1 0.2,0.1 0.1,0.1 0.2,0.2 0.1,0.1 0.2,0.1 0.2,0.2 0.1,0.2 0.2,0.1 0.1,0.2 0.2,0.2 0.1,0.1 0.2,0.2 0.1,0.2 0.2,0.2 0.2,0.2 0.1,0.3 0.2,0.2 0.1,0.2 0.2,0.2 0.1,0.3 0.2,0.2 0.2,0.3 0.1,0.2 0.2,0.3 0.1,0.3 0.2,0.2 0.1,0.3 0.2,0.3 0.1,0.3 0.2,0.3 0.2,0.3 0.1,0.3 0.2,0.3 0.1,0.3 0.2,0.3 0.1,0.3 0.2,0.3 0.2,0.4 0.1,0.3 0.2,0.3 0.1,0.3 0.2,0.4 0.1,0.3 0.2,0.3 0.1,0.3 0.2,0.4 0.2,0.3 0.1,0.3 0.2,0.3 0.1,0.4 0.2,0.3 0.1,0.3 0.2,0.3 0.2,0.3 0.1,0.3 0.2,0.4 0.1,0.3 0.2,0.3 0.1,0.2 0.2,0.3 0.1,0.3 0.2,0.3 0.2,0.3 0.1,0.2 0.2,0.3 0.1,0.2 0.2,0.3 0.1,0.2 0.2,0.3 0.2,0.2 0.1,0.2 0.2,0.2 0.1,0.2 0.2,0.2 0.1,0.2 0.2,0.1 0.1,0.2 0.2,0.2 0.2,0.1 0.1,0.1 0.2,0.2 0.1,0.1 0.2,0.1 0.1,0.1 0.2,0.1 h 0.2 l 0.1,0.1 0.2,0.1 h 0.1 0.2 l 0.1,0.1 h 0.2 0.1 0.2 0.2 l 0.1,-0.1 h 0.2 l 0.1,-0.1 h 0.2 l 0.1,-0.1 0.2,-0.1 h 0.2 l 0.1,-0.1 0.2,-0.1 0.1,-0.2 0.2,-0.1 0.1,-0.1 0.2,-0.2 0.1,-0.1 0.2,-0.2 0.2,-0.1 0.1,-0.2 0.2,-0.2 0.1,-0.2 0.2,-0.2 0.1,-0.2 0.2,-0.2 0.2,-0.2 0.1,-0.2 0.2,-0.3 0.1,-0.2 0.2,-0.3 0.1,-0.2 0.2,-0.3 0.1,-0.2 0.2,-0.3 0.2,-0.3 0.1,-0.2 0.2,-0.3 0.1,-0.3 0.2,-0.3 0.1,-0.3 0.2,-0.3 0.2,-0.2 0.1,-0.3 0.2,-0.3 0.1,-0.3 0.2,-0.3 0.1,-0.3 0.2,-0.3 0.1,-0.3 0.2,-0.3 0.2,-0.3 0.1,-0.3 0.2,-0.3 0.1,-0.2 0.2,-0.3 0.1,-0.3 0.2,-0.3 0.2,-0.3 0.1,-0.2 0.2,-0.3 0.1,-0.3 0.2,-0.2 0.1,-0.3 0.2,-0.2 0.1,-0.3 0.2,-0.2 0.2,-0.2 0.1,-0.3 0.2,-0.2 0.1,-0.2 0.2,-0.2 0.1,-0.2 0.2,-0.2 0.2,-0.2 0.1,-0.2 0.2,-0.2 0.1,-0.1 0.2,-0.2 0.1,-0.2 0.2,-0.1 0.1,-0.2 0.2,-0.1 0.2,-0.1 0.1,-0.2 0.2,-0.1 0.1,-0.1 0.2,-0.1 0.1,-0.1 0.2,-0.1 0.2,-0.1 h 0.1 l 0.2,-0.1 0.1,-0.1 0.2,-0.1 h 0.1 l 0.2,-0.1 h 0.1 l 0.2,-0.1 h 0.2 0.1 l 0.2,-0.1 h 0.1 0.2 0.1 0.2 0.2 0.1 0.2 0.1 0.2 0.1 0.2 0.1 0.2 0.2 0.1 l 0.2,0.1 h 0.1 0.2 l 0.1,0.1 h 0.2 0.2 l 0.1,0.1 h 0.2 0.1 l 0.2,0.1 h 0.1 0.2 l 0.1,0.1 h 0.2 l 0.2,0.1 h 0.1 l 0.2,0.1 h 0.1 l 0.2,0.1 h 0.1 l 0.2,0.1 h 0.2 l 0.1,0.1 h 0.2 l 0.1,0.1 h 0.2 l 0.1,0.1 h 0.2 l 0.1,0.1 h 0.2 l 0.2,0.1 0.1,0.1 h 0.2 l 0.1,0.1 h 0.2 l 0.1,0.1 0.2,0.1 h 0.2 l 0.1,0.1 0.2,0.1 0.1,0.1 h 0.2 l 0.1,0.1 0.2,0.1 0.1,0.1 0.2,0.1 0.2,0.1 0.1,0.1 0.2,0.1 0.1,0.1 0.2,0.1 0.1,0.1 0.2,0.1 0.2,0.1 0.1,0.1 0.2,0.2 0.1,0.1 0.2,0.1 0.1,0.2 0.2,0.1 0.1,0.2 0.2,0.2 0.2,0.2 0.1,0.1 0.2,0.2 0.1,0.2 0.2,0.2 0.1,0.3 0.2,0.2 0.2,0.2 0.1,0.3 0.2,0.2 0.1,0.3 0.2,0.3 0.1,0.3 0.2,0.3 0.1,0.3 0.2,0.3 0.2,0.3 0.1,0.4 0.2,0.3 0.1,0.4 0.2,0.3 0.1,0.4 0.2,0.4 0.2,0.4 0.1,0.4 0.2,0.5 0.1,0.4 0.2,0.4 0.1,0.5 0.2,0.5 0.1,0.4 0.2,0.5 0.2,0.5 0.1,0.5 0.2,0.5 0.1,0.5 0.2,0.5 0.1,0.5 0.2,0.6 0.2,0.5 0.1,0.5 0.2,0.6 0.1,0.5 0.2,0.5 0.1,0.6 0.2,0.5 0.1,0.6 0.2,0.5 0.2,0.6 0.1,0.5 0.2,0.5 0.1,0.6 0.2,0.5 0.1,0.5 0.2,0.6 0.2,0.5 0.1,0.5 0.2,0.5 0.1,0.5 0.2,0.5 0.1,0.5 0.2,0.5 0.1,0.4 0.2,0.5 0.2,0.4 0.1,0.5 0.2,0.4 0.1,0.4 0.2,0.5 0.1,0.4 0.2,0.3 0.2,0.4 0.1,0.4 0.2,0.3 0.1,0.4 0.2,0.3 0.1,0.3 0.2,0.4 0.1,0.2 0.2,0.3 0.2,0.3 0.1,0.3 0.2,0.2 0.1,0.3 0.2,0.2 0.1,0.2 0.2,0.2 0.2,0.2 0.1,0.2 0.2,0.2 0.1,0.2 0.2,0.2 0.1,0.1 0.2,0.2 0.1,0.1 0.2,0.1 0.2,0.1 0.1,0.2 0.2,0.1 0.1,0.1 0.2,0.1 0.1,0.1 h 0.2 l 0.2,0.1 0.1,0.1 0.2,0.1 h 0.1 l 0.2,0.1 h 0.1 l 0.2,0.1 h 0.1 l 0.2,0.1 h 0.2 l 0.1,0.1 h 0.2 l 0.1,0.1 h 0.2 0.1 0.2 l 0.2,0.1 h 0.1 0.2 l 0.1,0.1 h 0.2 0.1 0.2 0.1 l 0.2,0.1 h 0.2 0.1 0.2 0.1 l 0.2,0.1 h 0.1 0.2 0.2 0.1 l 0.2,0.1 h 0.1 0.2 0.1 l 0.2,0.1 h 0.1 0.2 l 0.2,0.1 h 0.1 0.2 l 0.1,0.1 h 0.2 0.1 l 0.2,0.1 h 0.2 0.1 l 0.2,0.1 h 0.1 l 0.2,0.1 h 0.1 l 0.2,0.1 h 0.1 0.2 l 0.2,0.1 0.1,0.1 h 0.2 l 0.1,0.1 h 0.2 l 0.1,0.1 h 0.2 l 0.2,0.1 h 0.1 l 0.2,0.1 0.1,0.1 h 0.2 l 0.1,0.1 h 0.2 l 0.1,0.1 0.2,0.1 h 0.2 l 0.1,0.1 h 0.2 l 0.1,0.1 h 0.2 l 0.1,0.1 0.2,0.1 h 0.2 l 0.1,0.1 h 0.2 l 0.1,0.1 h 0.2 l 0.1,0.1 h 0.2 0.1 l 0.2,0.1 h 0.2 0.1 l 0.2,0.1 h 0.1 0.2 0.1 l 0.2,0.1 h 0.2 0.1 0.2 0.1 0.2 0.1 0.2 0.1 0.2 l 0.2,-0.1 h 0.1 0.2 0.1 l 0.2,-0.1 h 0.1 l 0.2,-0.1 h 0.2 l 0.1,-0.1 h 0.2 l 0.1,-0.1 h 0.2 l 0.1,-0.1 0.2,-0.1 0.1,-0.1 0.2,-0.1 0.2,-0.1 0.1,-0.1 h 0.2 l 0.1,-0.2 0.2,-0.1 0.1,-0.1 0.2,-0.1 0.2,-0.1 0.1,-0.2 0.2,-0.1 0.1,-0.1 0.2,-0.2 0.1,-0.1 0.2,-0.2 0.1,-0.1 0.2,-0.2 0.2,-0.2 0.1,-0.2 0.2,-0.1 0.1,-0.2 0.2,-0.2 0.1,-0.2 0.2,-0.2 0.2,-0.2 0.1,-0.3 0.2,-0.2 0.1,-0.2 0.2,-0.2 0.1,-0.3 0.2,-0.2 0.1,-0.2 0.2,-0.3 0.2,-0.3 0.1,-0.2 0.2,-0.3 0.1,-0.3 0.2,-0.2 0.1,-0.3 0.2,-0.3 0.2,-0.3 0.1,-0.3 0.2,-0.3 0.1,-0.3 0.2,-0.3 0.1,-0.4 0.2,-0.3 0.1,-0.3 0.2,-0.4 0.2,-0.3 0.1,-0.4 0.2,-0.3 0.1,-0.4 0.2,-0.4 0.1,-0.3 0.2,-0.4 0.2,-0.4 0.1,-0.4 0.2,-0.4 0.1,-0.5 0.2,-0.4 0.1,-0.5 0.2,-0.4 0.1,-0.5 0.2,-0.5 0.2,-0.5 0.1,-0.5 0.2,-0.5 0.1,-0.5 0.2,-0.6 0.1,-0.6 0.2,-0.5 0.2,-0.7 0.1,-0.6 0.2,-0.6 0.1,-0.7 0.2,-0.7 0.1,-0.7 0.2,-0.8 0.1,-0.7 0.2,-0.8 0.2,-0.8 0.1,-0.9 0.2,-0.9 0.1,-0.9 0.2,-1 0.1,-1 0.2,-1 0.2,-1.1 0.1,-1.1 0.2,-1.1 0.1,-1.2 0.2,-1.3 0.1,-1.2 0.2,-1.4 0.1,-1.4 0.2,-1.4 0.2,-1.5 0.1,-1.5 0.2,-1.6 0.1,-1.6 0.2,-1.7 0.1,-1.8 0.2,-1.8 0.2,-1.9 0.1,-1.9 0.2,-2 0.1,-2.1 0.2,-2.1 0.1,-2.2 0.2,-2.3 0.1,-2.3 0.2,-2.4 0.2,-2.4 0.1,-2.5 0.2,-2.6 0.1,-2.6 0.2,-2.7 0.1,-2.7 0.2,-2.8 0.2,-2.9 0.1,-2.9 0.2,-3 0.1,-3 0.2,-3.1 0.1,-3.1 0.2,-3.2 0.1,-3.2 0.2,-3.3 0.2,-3.3 0.1,-3.4 0.2,-3.4 0.1,-3.4 0.2,-3.5 0.1,-3.5 0.2,-3.5 0.2,-3.5 0.1,-3.6 0.2,-3.6 0.1,-3.6 0.2,-3.6 0.1,-3.6 0.2,-3.6 0.1,-3.6 0.2,-3.7 0.2,-3.6 0.1,-3.6 0.2,-3.6 0.1,-3.6 0.2,-3.6 0.1,-3.6 0.2,-3.6 0.2,-3.5 0.1,-3.5 0.2,-3.5 0.1,-3.5 0.2,-3.4 0.1,-3.4 0.2,-3.4 0.1,-3.3 0.2,-3.3 0.2,-3.3 0.1,-3.2 0.2,-3.2 0.1,-3.1 0.2,-3.1 0.1,-3.1 0.2,-3 0.2,-3 0.1,-2.9 0.2,-2.9 0.1,-2.8 0.2,-2.8 0.1,-2.8 0.2,-2.7 0.1,-2.7 0.2,-2.6 0.2,-2.5 0.1,-2.6 0.2,-2.4 0.1,-2.5 0.2,-2.4 0.1,-2.3 0.2,-2.3 0.2,-2.3 0.1,-2.2 0.2,-2.1 0.1,-2.1 0.2,-2.1 0.1,-2 0.2,-2 0.1,-2 0.2,-1.8 0.2,-1.9 0.1,-1.8 0.2,-1.8 0.1,-1.7 0.2,-1.6 0.1,-1.7 0.2,-1.5 0.2,-1.6 0.1,-1.5 0.2,-1.4 0.1,-1.4 0.2,-1.4 0.1,-1.3 0.2,-1.2 0.1,-1.3 0.2,-1.1 0.2,-1.2 0.1,-1 0.2,-1.1 0.1,-1 0.2,-0.9 0.1,-0.9 0.2,-0.9 0.2,-0.8 0.1,-0.8 0.2,-0.7 0.1,-0.7 0.2,-0.7 0.1,-0.6 0.2,-0.5 0.1,-0.6 0.2,-0.5 0.2,-0.4 0.1,-0.4 0.2,-0.4 0.1,-0.3 0.2,-0.3 0.1,-0.3 0.2,-0.2 0.2,-0.2 0.1,-0.2 0.2,-0.1 0.1,-0.1 0.2,-0.1 0.1,-0.1 h 0.2 0.1 0.2 l 0.2,0.1 h 0.1 l 0.2,0.1 0.1,0.1 0.2,0.1 0.1,0.1 0.2,0.2 0.2,0.1 0.1,0.2 0.2,0.2 0.1,0.2 0.2,0.1 0.1,0.2 0.2,0.2 0.1,0.2 0.2,0.2 0.2,0.2 0.1,0.2 0.2,0.2 0.1,0.2 0.2,0.2 0.1,0.2 0.2,0.2 0.2,0.1 0.1,0.2 0.2,0.2 0.1,0.1 0.2,0.2 0.1,0.1 0.2,0.2 0.1,0.1 0.2,0.1 0.2,0.1 0.1,0.1 0.2,0.1 0.1,0.1 0.2,0.1 h 0.1 l 0.2,0.1 0.1,0.1 h 0.2 l 0.2,0.1 h 0.1 l 0.2,0.1 h 0.1 0.2 l 0.1,0.1 h 0.2 l 0.2,0.1 h 0.1 l 0.2,0.1 0.1,0.1 h 0.2 l 0.1,0.1 0.2,0.1 0.1,0.1 0.2,0.1 0.2,0.2 0.1,0.1 0.2,0.2 0.1,0.2 0.2,0.2 0.1,0.2 0.2,0.3 0.2,0.2 0.1,0.3 0.2,0.4 0.1,0.3 0.2,0.4 0.1,0.5 0.2,0.4 0.1,0.5 0.2,0.6 0.2,0.5 0.1,0.6 0.2,0.7 0.1,0.6 0.2,0.8 0.1,0.7 0.2,0.8 0.2,0.8 0.1,0.9 0.2,0.9 0.1,1 0.2,1 0.1,1 0.2,1.1 0.1,1.1 0.2,1.1 0.2,1.2 0.1,1.2 0.2,1.2 0.1,1.3 0.2,1.3 0.1,1.4 0.2,1.3 0.2,1.4 0.1,1.4 0.2,1.5 0.1,1.4 0.2,1.5 0.1,1.5 0.2,1.5 0.1,1.5 0.2,1.5 0.2,1.6 0.1,1.5 0.2,1.5 0.1,1.6 0.2,1.5 0.1,1.5 0.2,1.6 0.2,1.5 0.1,1.5 0.2,1.4 0.1,1.5 0.2,1.5 0.1,1.4 0.2,1.4 0.1,1.3 0.2,1.4 0.2,1.3 0.1,1.2 0.2,1.3 0.1,1.2 0.2,1.1 0.1,1.2 0.2,1.1 0.2,1 0.1,1 0.2,0.9 0.1,0.9 0.2,0.9 0.1,0.8 0.2,0.8 0.1,0.7 0.2,0.7 0.2,0.6 0.1,0.6 0.2,0.5 0.1,0.5 0.2,0.4 0.1,0.4 0.2,0.3 0.2,0.3 0.1,0.3 0.2,0.2 0.1,0.2 0.2,0.1 0.1,0.1 0.2,0.1 h 0.1 0.2 l 0.2,-0.1 h 0.1 l 0.2,-0.1 0.1,-0.1 0.2,-0.2 0.1,-0.1 0.2,-0.2 0.2,-0.2 0.1,-0.2 0.2,-0.3 0.1,-0.2 0.2,-0.2 0.1,-0.3 0.2,-0.2 0.1,-0.3 0.2,-0.2 0.2,-0.3 0.1,-0.2 0.2,-0.3 0.1,-0.2 0.2,-0.2 0.1,-0.2 0.2,-0.2 0.2,-0.2 0.1,-0.2 0.2,-0.1 0.1,-0.1 0.2,-0.1 0.1,-0.1 0.2,-0.1 h 0.1 0.2 0.2 0.1 l 0.2,0.1 0.1,0.1 0.2,0.1 0.1,0.1 0.2,0.2 0.2,0.2 0.1,0.3 0.2,0.2 0.1,0.3 0.2,0.4 0.1,0.3 0.2,0.4 0.1,0.4 0.2,0.5 0.2,0.5 0.1,0.5 0.2,0.5 0.1,0.6 0.2,0.6 0.1,0.6 0.2,0.7 0.2,0.7 0.1,0.7 0.2,0.8 0.1,0.7 0.2,0.8 0.1,0.9 0.2,0.8 0.1,0.9 0.2,0.9 0.2,0.9 0.1,1 0.2,0.9 0.1,1 0.2,1 0.1,1 0.2,1.1 0.2,1 0.1,1.1 0.2,1.1 0.1,1.1 0.2,1.1 0.1,1.1 0.2,1.1 0.1,1.1 0.2,1.1 0.2,1.1 0.1,1.2 0.2,1.1 0.1,1.1 0.2,1.1 0.1,1.1 0.2,1.1 0.2,1.1 0.1,1 0.2,1.1 0.1,1 0.2,1 0.1,1 0.2,1 0.1,0.9 0.2,1 0.2,0.9 0.1,0.8 0.2,0.9 0.1,0.8 0.2,0.8 0.1,0.8 0.2,0.7 0.2,0.7 0.1,0.6 0.2,0.7 0.1,0.6 0.2,0.5 0.1,0.5 0.2,0.5 0.1,0.5 0.2,0.4 0.2,0.4 0.1,0.4 0.2,0.3 0.1,0.3 0.2,0.2 0.1,0.3 0.2,0.2 0.2,0.1 0.1,0.2 0.2,0.1 h 0.1 l 0.2,0.1 h 0.1 0.2 0.1 l 0.2,-0.1 h 0.2 l 0.1,-0.1 0.2,-0.1 0.1,-0.1 0.2,-0.2 0.1,-0.1 0.2,-0.2 0.2,-0.2 0.1,-0.2 0.2,-0.2 0.1,-0.2 0.2,-0.2 0.1,-0.2 0.2,-0.3 0.1,-0.2 0.2,-0.3 0.2,-0.2 0.1,-0.2 0.2,-0.3 0.1,-0.2 0.2,-0.3 0.1,-0.3 0.2,-0.2 0.2,-0.3 0.1,-0.2 0.2,-0.3 0.1,-0.2 0.2,-0.3 0.1,-0.2 0.2,-0.3 0.1,-0.2 0.2,-0.3 0.2,-0.2 0.1,-0.2 0.2,-0.3 0.1,-0.3 0.2,-0.2 0.1,-0.3 0.2,-0.2 0.2,-0.3 0.1,-0.3 0.2,-0.3 0.1,-0.3 0.2,-0.3 0.1,-0.3 0.2,-0.3 0.1,-0.3 0.2,-0.4 0.2,-0.3 0.1,-0.4 0.2,-0.3 0.1,-0.4 0.2,-0.4 0.1,-0.4 0.2,-0.4 0.2,-0.5 0.1,-0.4 0.2,-0.4 0.1,-0.5 0.2,-0.5 0.1,-0.4 0.2,-0.5 0.1,-0.5 0.2,-0.5 0.2,-0.4 0.1,-0.5 0.2,-0.5 0.1,-0.5 0.2,-0.5 0.1,-0.5 0.2,-0.4 0.2,-0.5 0.1,-0.5 0.2,-0.4 0.1,-0.5 0.2,-0.4 0.1,-0.5 0.2,-0.4 0.1,-0.4 0.2,-0.4 0.2,-0.4 0.1,-0.3 0.2,-0.4 0.1,-0.3 0.2,-0.4 0.1,-0.3 0.2,-0.3 0.2,-0.3 0.1,-0.3 0.2,-0.3 0.1,-0.3 0.2,-0.2 0.1,-0.3 0.2,-0.3 0.1,-0.2 0.2,-0.3 0.2,-0.2 0.1,-0.2 0.2,-0.3 0.1,-0.2 0.2,-0.3 0.1,-0.2 0.2,-0.2 0.2,-0.3 0.1,-0.2 0.2,-0.2 0.1,-0.3 0.2,-0.2 0.1,-0.2 0.2,-0.2 0.1,-0.2 0.2,-0.2 0.2,-0.2 0.1,-0.2 0.2,-0.1 0.1,-0.2 0.2,-0.1 0.1,-0.1 h 0.2 0.2 0.1 0.2 l 0.1,0.1 0.2,0.2 0.1,0.2 0.2,0.2 0.1,0.3 0.2,0.4 0.2,0.4 0.1,0.6 0.2,0.6 0.1,0.6 0.2,0.8 0.1,0.9 0.2,0.9 0.2,1.1 0.1,1.1 0.2,1.2 0.1,1.4 0.2,1.5 0.1,1.5 0.2,1.7 0.1,1.8 0.2,1.9 0.2,2 0.1,2.1 0.2,2.2 0.1,2.4 0.2,2.4 0.1,2.6 0.2,2.7 0.2,2.7 0.1,2.9 0.2,2.9 0.1,3.1 0.2,3.1 0.1,3.2 0.2,3.3 0.1,3.3 0.2,3.4 0.2,3.5 0.1,3.5 0.2,3.6 0.1,3.6 0.2,3.6 0.1,3.6 0.2,3.7 0.2,3.6 0.1,3.7 0.2,3.7 0.1,3.6 0.2,3.7 0.1,3.6 0.2,3.5 0.1,3.6 0.2,3.5 0.2,3.4 0.1,3.4 0.2,3.3 0.1,3.3 0.2,3.2 0.1,3.1 0.2,3 0.2,3 0.1,2.9 0.2,2.8 0.1,2.7 0.2,2.7 0.1,2.5 0.2,2.5 0.1,2.4 0.2,2.3 0.2,2.2 0.1,2.2 0.2,2 0.1,2 0.2,1.9 0.1,1.8 0.2,1.8 0.2,1.7 0.1,1.6 0.2,1.5 0.1,1.5 0.2,1.4 0.1,1.4 0.2,1.3 0.1,1.2 0.2,1.2 0.2,1.1 0.1,1.1 0.2,1.1 0.1,1 0.2,1 0.1,0.9 0.2,0.9 0.2,0.8 0.1,0.9 0.2,0.7 0.1,0.8 0.2,0.7 0.1,0.7 0.2,0.7 0.1,0.7 0.2,0.6 0.2,0.6 0.1,0.6 0.2,0.6 0.1,0.5 0.2,0.5 0.1,0.5 0.2,0.5 0.2,0.4 0.1,0.5 0.2,0.4 0.1,0.4 0.2,0.4 0.1,0.3 0.2,0.3 0.1,0.4 0.2,0.2 0.2,0.3 0.1,0.3 0.2,0.2 0.1,0.2 0.2,0.3 0.1,0.1 0.2,0.2 0.2,0.2 0.1,0.1 0.2,0.1 0.1,0.2 0.2,0.1 h 0.1 l 0.2,0.1 0.1,0.1 h 0.2 l 0.2,0.1 h 0.1 0.2 0.1 0.2 0.1 0.2 0.2 0.1 l 0.2,-0.1 h 0.1 l 0.2,-0.1 h 0.1 l 0.2,-0.1 0.1,-0.1 0.2,-0.1 0.2,-0.1 0.1,-0.1 0.2,-0.1 0.1,-0.1 0.2,-0.2 0.1,-0.2 0.2,-0.2 0.2,-0.2 0.1,-0.2 0.2,-0.2 0.1,-0.3 0.2,-0.3 0.1,-0.3 0.2,-0.3 0.1,-0.4 0.2,-0.4 0.2,-0.4 0.1,-0.5 0.2,-0.5 0.1,-0.5 0.2,-0.6 0.1,-0.6 0.2,-0.6 0.2,-0.7 0.1,-0.7 0.2,-0.7 0.1,-0.8 0.2,-0.8 0.1,-0.9 0.2,-0.9 0.1,-0.9 0.2,-1 0.2,-1.1 0.1,-1 0.2,-1.1 0.1,-1.1 0.2,-1.2 0.1,-1.2 0.2,-1.2 0.2,-1.3 0.1,-1.3 0.2,-1.3 0.1,-1.3 0.2,-1.4 0.1,-1.3 0.2,-1.4 0.1,-1.4 0.2,-1.4 0.2,-1.4 0.1,-1.4 0.2,-1.4 0.1,-1.4 0.2,-1.4 0.1,-1.4 0.2,-1.4 0.2,-1.3 0.1,-1.3 0.2,-1.3 0.1,-1.3 0.2,-1.3 0.1,-1.2 0.2,-1.2 0.1,-1.1 0.2,-1.2 0.2,-1.1 0.1,-1 0.2,-1 0.1,-1 0.2,-1 0.1,-1 0.2,-0.9 0.2,-0.9 0.1,-0.8 0.2,-0.9 0.1,-0.8 0.2,-0.9 0.1,-0.8 0.2,-0.8 0.1,-0.8 0.2,-0.8 0.2,-0.9 0.1,-0.8 0.2,-0.9 0.1,-0.8 0.2,-0.9 0.1,-0.9 0.2,-0.9 0.2,-1 0.1,-1 0.2,-1 0.1,-1 0.2,-1.1 0.1,-1.1 0.2,-1.1 0.1,-1.2 0.2,-1.2 0.2,-1.2 0.1,-1.2 0.2,-1.3 0.1,-1.2 0.2,-1.3 0.1,-1.3 0.2,-1.3 0.2,-1.4 0.1,-1.3 0.2,-1.3 0.1,-1.4 0.2,-1.3 0.1,-1.3 0.2,-1.3 0.1,-1.4 0.2,-1.3 0.2,-1.3 0.1,-1.2 0.2,-1.3 0.1,-1.3 0.2,-1.2 0.1,-1.3 0.2,-1.2 0.2,-1.2 0.1,-1.2 0.2,-1.3 0.1,-1.2 0.2,-1.2 0.1,-1.2 0.2,-1.2 0.1,-1.3 0.2,-1.2 0.2,-1.2 0.1,-1.3 0.2,-1.3 0.1,-1.3 0.2,-1.3 0.1,-1.4 0.2,-1.3 0.2,-1.4 0.1,-1.4 0.2,-1.4 0.1,-1.5 0.2,-1.4 0.1,-1.5 0.2,-1.5 0.1,-1.5 0.2,-1.5 0.2,-1.5 0.1,-1.5 0.2,-1.5 0.1,-1.5 0.2,-1.5 0.1,-1.4 0.2,-1.5 0.2,-1.4 0.1,-1.4 0.2,-1.3 0.1,-1.3 0.2,-1.3 0.1,-1.2 0.2,-1.2 0.1,-1.1 0.2,-1 0.2,-1 0.1,-0.9 0.2,-0.8 0.1,-0.8 0.2,-0.7 0.1,-0.6 0.2,-0.6 0.2,-0.4 0.1,-0.4 0.2,-0.3 0.1,-0.2 0.2,-0.1 0.1,-0.1 0.2,0.1 0.1,0.1 0.2,0.2 0.2,0.3 0.1,0.3 0.2,0.5 0.1,0.5 0.2,0.6 0.1,0.7 0.2,0.8 0.2,0.8 0.1,1 0.2,1 0.1,1.2 0.2,1.2 0.1,1.4 0.2,1.5 0.1,1.6 0.2,1.7 0.2,1.8 0.1,2 0.2,2.1 0.1,2.2 0.2,2.4 0.1,2.6 0.2,2.6 0.2,2.9 0.1,3 0.2,3.1 0.1,3.3 0.2,3.4 0.1,3.5 0.2,3.7 0.1,3.8 0.2,3.8 0.2,4 0.1,4 0.2,4 0.1,4.1 0.2,4.1 0.1,4 0.2,4.1 0.2,4 0.1,3.9 0.2,3.9 0.1,3.8 0.2,3.6 0.1,3.6 0.2,3.4 0.1,3.2 0.2,3.1 0.2,3 0.1,2.8 0.2,2.6 0.1,2.5 0.2,2.3 0.1,2.2 0.2,2 0.2,1.9 0.1,1.7 0.2,1.6 0.1,1.5 0.2,1.3 0.1,1.3 0.2,1.1 0.1,1 0.2,1 0.2,0.8 0.1,0.8 0.2,0.7 0.1,0.6 0.2,0.5 0.1,0.5 0.2,0.4 0.2,0.3 0.1,0.3 0.2,0.2 0.1,0.2 0.2,0.1 h 0.1 l 0.2,0.1 h 0.1 l 0.2,-0.1 h 0.2 l 0.1,-0.1 0.2,-0.1 0.1,-0.2 0.2,-0.1 0.1,-0.1 0.2,-0.1 0.2,-0.1 h 0.1 l 0.2,-0.1 h 0.1 l 0.2,0.1 0.1,0.1 0.2,0.1 0.1,0.2 0.2,0.3 0.2,0.3 0.1,0.4 0.2,0.5 0.1,0.5 0.2,0.6 0.1,0.7 0.2,0.7 0.2,0.8 0.1,0.9 0.2,1 0.1,1 0.2,1 0.1,1.1 0.2,1.1 0.1,1.1 0.2,1.1 0.2,1.1 0.1,1.1 0.2,1 0.1,1 0.2,0.9 0.1,0.8 0.2,0.8 0.2,0.7 0.1,0.6 0.2,0.5 0.1,0.4 0.2,0.4 0.1,0.3 0.2,0.2 0.1,0.1 0.2,0.1 0.2,0.1 h 0.1 0.2 l 0.1,-0.1 0.2,-0.1 0.1,-0.1 0.2,-0.2 0.2,-0.3 0.1,-0.3 0.2,-0.3 0.1,-0.4 0.2,-0.5 0.1,-0.5 0.2,-0.6 0.1,-0.7 0.2,-0.7 0.2,-0.7 0.1,-0.8 0.2,-0.8 0.1,-0.8 0.2,-0.8 0.1,-0.7 0.2,-0.8 0.2,-0.6 0.1,-0.7 0.2,-0.5 0.1,-0.5 0.2,-0.5 0.1,-0.4 0.2,-0.3 0.1,-0.3 0.2,-0.3 0.2,-0.3 0.1,-0.3 0.2,-0.4 0.1,-0.4 0.2,-0.5 0.1,-0.6 0.2,-0.7 0.2,-0.9 0.1,-1 0.2,-1.1 0.1,-1.3 0.2,-1.4 0.1,-1.5 0.2,-1.6 0.1,-1.5 0.2,-1.5 0.2,-1.4 0.1,-1.4 0.2,-1.2 0.1,-1.1 0.2,-1 0.1,-1.1 0.2,-1.1 0.2,-1.2 0.1,-1.4 0.2,-1.5 0.1,-1.7 0.2,-1.8 0.1,-1.8 0.2,-1.6 0.1,-1.5 0.2,-1.2 0.2,-0.9 0.1,-0.6 0.2,-0.4 0.1,-0.3 0.2,-0.2 0.1,-0.1 0.2,-0.2 0.2,-0.2 0.1,-0.2 0.2,-0.3 0.1,-0.3 0.2,-0.1 0.1,-0.1"
             inkscape:connector-curvature="0"
             style="fill:none;stroke:#00dbee;stroke-width:4;stroke-miterlimit:4;stroke-dasharray:none;stroke-opacity:1" />
        </g>
      </g>
      <g
         transform="matrix(0.26458333,0,0,0.26458333,-256.40691,336.96781)"
         id="g1167"
         style="color:#000000;fill:none;stroke:currentColor;stroke-width:1;stroke-linecap:butt;stroke-linejoin:miter">
        <path
           id="path1165"
           d="M 71.9,18.1 V 542.4 H 775 V 18.1 Z"
           inkscape:connector-curvature="0"
           style="stroke:#000000" />
      </g>
    </g>
  </g>
</svg>
